<svg xmlns="http://www.w3.org/2000/svg" viewBox="0 0 597.45 1006.3"><path d="M594.48 986.82c-9.48 4.72-19.33 9.55-30.7 12.12-11.63 2.63-20.39-.37-24.54-8.43-6.08-11.6-1.25-29.96 10.8-40.94 6.6-7.14 14.68-12.58 22.46-17.83 8.3-5.62 17-11.43 23.86-19.4l1.08-1.27v-1.58q-.91 1.09-1.87 2.2c-6.76 7.86-15.37 13.64-23.63 19.23-7.82 5.28-15.9 10.72-22.62 17.93-12.34 11.25-17.25 30.14-11.02 42.13 4.46 8.51 13.6 11.66 25.75 8.94 11.4-2.58 21.33-7.47 30.92-12.17l2.48-1.22v-1.15l-2.97 1.44zM591.72 621.65c.83-6.7 1.55-12.52-.26-17.42-5.18-13.74-28.32-21.78-42.33-22.88a93.55 93.55 0 00-14.27.38l-1.89.15c-6.19.45-12.53.58-18.65.75-19.1.44-35.6.84-42.4 9.88-3.43 4.6-4 11.08-1.65 19.76 2.03 7.64 6.11 13.74 10.45 20.23.9 1.32 1.78 2.68 2.72 4.08a353.63 353.63 0 0121.07 38.16 410.17 410.17 0 0127.1 73.39c1.18 4.27 2.04 8.85 2.91 13.27 1.74 9.17 3.4 17.85 7.3 23.12l.1.1c3.06 2.19 6.46 4.23 10 6.4 8.05 4.81 17.03 10.29 24.13 18.69 6.45 7.66 11.89 16.68 17.14 25.38 1.4 2.31 2.81 4.66 4.25 6.98v-1.9l-3.42-5.58c-5.21-8.76-10.72-17.83-17.22-25.53-7.17-8.53-16.3-14.04-24.35-18.9a158.03 158.03 0 01-9.89-6.3c-3.74-5.09-5.32-13.62-7.06-22.62-.87-4.47-1.73-9.08-2.9-13.36a409.38 409.38 0 00-27.19-73.56 357.05 357.05 0 00-21.14-38.28c-.91-1.4-1.81-2.76-2.72-4.1-4.3-6.4-8.35-12.45-10.34-19.9-2.2-8.39-1.7-14.58 1.5-18.92 6.5-8.63 23.56-9.06 41.6-9.47 6.16-.17 12.5-.3 18.7-.76l1.92-.15a91.24 91.24 0 0114.13-.38c13.74 1.08 36.39 8.89 41.4 22.22 1.78 4.68 1.1 10.4.24 16.96-.8 6.63-1.7 14.14-.23 22.19a53.11 53.11 0 006.97 17.5v-2a50.97 50.97 0 01-5.95-15.67c-1.5-7.9-.56-15.34.23-21.9zM214.18 76.9c-6.2 1.66-12.05 3.23-16.05 5.72-5.81 3.64-7.4 6.53-10.5 12.33-.34.64-.75 1.33-1.13 2.07l-.03.17a55.3 55.3 0 00-.12 10.85l.04.2c5.62 11.64 17.7 20.7 29.98 22.55l.03.02.12-.02c13.81-1.66 19.33-12.65 24.65-23.27 4.98-9.93 9.7-19.31 20.77-20.88 4.15-.6 8.23-1.08 12.15-1.51 18.66-2.13 34.74-3.93 48.07-18.63 11.1-12.23 12.38-26.69 14.15-46.72.27-3.02.53-6.15.87-9.45a95.53 95.53 0 011.7-9.73L339 0H338a1.46 1.46 0 00-.07.38 98.05 98.05 0 00-1.78 9.83c-.3 3.3-.6 6.46-.83 9.48-1.77 19.84-3.06 34.14-13.89 46.14-13.06 14.4-29.03 16.2-47.46 18.3-3.92.43-8 .9-12.2 1.49-11.58 1.66-16.6 11.72-21.48 21.44-5.2 10.38-10.6 21.08-23.82 22.72-11.97-1.8-23.67-10.6-29.15-21.91a60.37 60.37 0 01.08-10.46c.41-.71.75-1.37 1.13-2 3.13-5.8 4.53-8.44 10.12-11.95 3.85-2.41 9.66-3.96 15.78-5.6 9.7-2.6 19.78-5.28 24.65-11.85 5.78-7.78 10.57-21.16 14.84-32.96 1.29-3.58 2.45-6.94 3.62-9.89 2.42-6.2 3.7-12.68 4.99-18.95.26-1.43.57-2.85.83-4.2h-1.06c-.26 1.3-.49 2.64-.79 4a115.7 115.7 0 01-4.9 18.78c-1.18 2.96-2.39 6.33-3.67 9.92-4.2 11.74-8.95 25.03-14.65 32.7-4.68 6.28-14.57 8.92-24.12 11.49z" fill="#cfd4dd"/><path d="M594.74 853.59c-1.4-2.42-2.8-4.9-4.11-7.44-.72-1.36-1.44-2.83-2.2-4.3-7.54-14.93-17.9-35.36-38.05-38.8a37.53 37.53 0 00-5.7-.4c-2.23 0-4.53.15-6.72.28-2.15.17-4.42.3-6.57.3a24.77 24.77 0 01-8.95-1.38c-1.85-9.2-.08-14.8 1.62-20.22a47.7 47.7 0 002.15-8.98 91.4 91.4 0 00.12-19.03c-1.1-11.25-4.83-22.95-8.5-34.3-.52-1.71-1.05-3.4-1.58-5.05-6.38-20.37-15.79-40.28-29.56-62.78a155.73 155.73 0 00-10.99-14.91c-7.33-9.15-14.27-17.82-16.54-28.56-3.02-13.97 2.57-29.01 12.69-34.24 5.93-3.05 13.48-3.5 20.8-3.92 8.42-.51 17.1-1.02 23.75-5.48 6.04-4.04 7.89-10.89 9.63-17.51 2.03-7.61 3.92-14.78 11.81-17.95a13.7 13.7 0 015.17-.97c6.3 0 13.3 3.76 17.33 9.31 3.48 4.8 5.17 10.16 6.76 15.34 1.66 5.29 3.36 10.75 6.95 15.52 3.85 5.08 9.17 8.68 14.34 12.16a88.8 88.8 0 019.05 6.67v-1.33a97.8 97.8 0 00-8.48-6.17c-5.1-3.44-10.35-6.99-14.12-11.95-3.47-4.61-5.1-9.74-6.76-15.2-1.66-5.24-3.32-10.68-6.94-15.63-4.23-5.81-11.52-9.71-18.13-9.71a14.9 14.9 0 00-5.54 1.01c-8.39 3.34-10.43 11.12-12.43 18.63-1.66 6.46-3.43 13.1-9.2 16.97-6.43 4.29-15 4.78-23.27 5.28-7.44.42-15.06.9-21.21 4.04-10.5 5.42-16.28 20.94-13.22 35.34 2.38 11 9.7 20.12 16.77 28.97a138.26 138.26 0 0110.87 14.84c13.78 22.38 23.18 42.26 29.48 62.5.53 1.7 1.1 3.38 1.63 5.1 3.58 11.27 7.32 22.95 8.46 34.09a89.4 89.4 0 01-.12 18.82 46.3 46.3 0 01-2.11 8.8c-1.74 5.58-3.59 11.38-1.6 20.98l.09.26.22.1a25.06 25.06 0 009.55 1.55c2.2 0 4.46-.13 6.61-.28 2.2-.13 4.5-.3 6.69-.3a33.22 33.22 0 015.54.43c19.67 3.32 29.87 23.48 37.34 38.2.76 1.53 1.47 2.96 2.2 4.32 1.31 2.59 2.71 5.06 4.07 7.46 1.3 2.27 2.54 4.47 3.6 6.56v-2.16c-.84-1.6-1.76-3.22-2.69-4.88z" fill="#cfd4dd"/><path d="M580.1 913.99c-4.58 3.85-10 7.11-15.83 10.55-6.15 3.68-12.53 7.5-17.9 12.13a95.82 95.82 0 00-6.49 6.27c-6.6 6.66-13.4 13.55-22.42 13.55a21.52 21.52 0 01-7.86-1.62c-12.46-5-26.73-14.63-41.87-24.84-10.5-7.1-21.37-14.4-31.9-20.31-1.24-.72-2.6-1.42-3.96-2.15a68.2 68.2 0 01-10.27-6.15c-9.51-7.61-15.22-16.6-20.65-25.28-4.9-7.72-9.44-14.98-16.42-20.93-12.05-10.25-28.36-18.1-41.46-19.97a55.92 55.92 0 00-7.51-.49 46.22 46.22 0 00-7.36.53c-6.8 1.1-14.84 4.96-22.54 8.68-1.1.55-2.23 1.08-3.29 1.59a126.97 126.97 0 01-15.29 5.64c-7.1 2.28-13.78 4.45-18 7.51-8.62 6.17-8.8 14.84-9.07 26.8a168.5 168.5 0 01-.41 10.95c-1.36 20.7-7.86 57.93-35.57 74.61-20.23 12.14-59.69 24.12-86.15 26.13-5.67.41-10.35.64-14.39.64a60.57 60.57 0 01-10.49-.74c-14.5-2.6-27.9-16.85-30.43-32.39-1.21-7.4-.19-15.53.83-24.12 1.06-8.72 2.15-17.7 1.1-26.91-1.1-10.24-1.93-26.54-.91-38.13a144.1 144.1 0 013.21-18.9c1.58-7.43 3.13-14.42 2.76-20.48-1.1-18.44-16.65-24.74-31.72-30.86-14.04-5.7-28.5-11.59-31.48-27.25-2.69-12.44-.3-20.58 7.92-27.18 4.12-3.34 8.95-6 14.05-8.84 5.51-3.05 11.29-6.22 16.16-10.36 10.84-9.19 16.76-17.14 18.69-24.91 2-8.2.79-16-.38-23.54-.9-5.82-1.74-11.3-1.25-16.99 1.67-18.99 13.37-31.26 25.71-41.7 9.3-7.83 20.35-12.11 32.06-16.64 12.3-4.78 24.99-9.68 35.9-19.1.94-.87 1.8-1.83 2.71-2.74a24.09 24.09 0 012.8-2.75c5.03-4.23 10.58-8.06 16.47-12.1 16.9-11.61 34.39-23.64 37.22-45.1 1.25-9.32-.94-18.14-3.25-27.46-2.71-10.98-5.5-22.31-3.66-36.52 1.1-8.04 4.27-17.33 7.63-27.16 2.23-6.59 4.57-13.4 6.42-20.22 1.47-5.59 2.83-11.42 4.15-17.04 2.64-11.31 5.36-22.95 9.14-32.6 8.76-22.52 20.84-38.9 41.64-56.52 2.68-2.3 5.78-4.6 8.8-6.83 6.04-4.45 12.31-9.06 16.35-14.38 6.98-9.25 9.2-23.46 11.55-38.49 1.7-10.98 3.47-22.34 7.21-32.73 8.04-22.42 19.9-33.33 36.28-33.33a38.97 38.97 0 015.48.4c6 .85 12.87 4.21 20.12 7.78 8.65 4.24 17.6 8.62 25.4 8.62a15.59 15.59 0 0011.7-4.79c5.3-5.38 4.2-12.25 3.14-18.9-.75-4.55-1.43-8.83-.1-12.46 2.93-7.98 11.88-12.87 21.44-18.06 7.17-3.9 14.57-7.95 19.29-13.52 5.77-6.8 7.2-13.19 8.98-25.17.2-6.44-1.85-14.65-4-23.34-1.73-6.8-3.47-13.85-4.08-20.04-1.09-11.3 3.17-18.44 13.03-21.76 4.95-1.68 11.18-1.7 17.74-1.7 9.52-.02 19.37-.06 27.22-5.02 3.25-2.08 6.3-5.22 9.52-8.56a93.1 93.1 0 015.55-5.5A221.61 221.61 0 01584.81 0H583a219.41 219.41 0 00-26.58 20.05c-1.92 1.75-3.81 3.7-5.58 5.56-3.18 3.29-6.2 6.4-9.33 8.38-7.59 4.84-17.33 4.85-26.7 4.87-6.68.02-12.94.04-18.11 1.76-10.35 3.51-14.84 10.99-13.67 22.84.6 6.25 2.38 13.32 4.07 20.16 2.2 8.64 4.23 16.76 3.97 22.99-1.66 11.76-3.1 18.04-8.69 24.65-4.6 5.42-11.92 9.4-19.02 13.27-9.7 5.28-18.84 10.25-21.86 18.59-1.44 3.89-.72 8.29.04 12.99.98 6.37 2.03 13-2.91 18a14.55 14.55 0 01-10.95 4.51c-7.6 0-16.42-4.34-24.96-8.53-7.36-3.6-14.27-6.98-20.46-7.87a40.74 40.74 0 00-5.59-.4c-16.87 0-29.03 11.12-37.22 34.01-3.78 10.46-5.52 21.86-7.25 32.88-2.38 14.93-4.53 29.02-11.37 38.06-3.96 5.19-10.15 9.75-16.15 14.17-2.99 2.23-6.12 4.53-8.88 6.87-20.91 17.77-33.07 34.24-41.87 56.91-3.81 9.72-6.53 21.4-9.17 32.73-1.32 5.63-2.68 11.46-4.23 17.03-1.77 6.81-4.12 13.59-6.34 20.15-3.4 9.87-6.57 19.2-7.67 27.37-1.88 14.37.95 25.82 3.7 36.87 2.27 9.25 4.42 17.94 3.21 27.12-2.8 20.99-20.08 32.88-36.84 44.37-5.63 3.9-11.44 7.91-16.5 12.16a25.96 25.96 0 00-2.91 2.85c-.83.89-1.7 1.81-2.64 2.64-10.77 9.33-23.37 14.21-35.6 18.93-11.78 4.57-22.92 8.88-32.32 16.82-12.54 10.6-24.35 23.03-26.09 42.4-.53 5.77.42 11.6 1.28 17.2 1.17 7.44 2.35 15.13.42 23.15-1.89 7.59-7.7 15.33-18.39 24.36-4.83 4.1-10.5 7.24-16 10.3-5.18 2.83-10.01 5.5-14.2 8.9-8.54 6.91-11.03 15.33-8.3 28.18 3.1 16.2 17.85 22.2 32.12 27.98 15.48 6.26 30.06 12.19 31.07 30 .38 5.92-1.1 12.84-2.72 20.18a144.34 144.34 0 00-3.28 19.03c-.94 11.67-.15 28.05.98 38.34 1.02 9.1-.07 18.02-1.13 26.68s-2 16.86-.8 24.4c2.6 15.94 16.32 30.53 31.23 33.21a61.32 61.32 0 0010.68.76c4.08 0 8.8-.21 14.43-.64 26.61-2.03 66.3-14.05 86.64-26.26 20.84-12.55 33.64-39.32 36.06-75.4.26-3.97.34-7.7.45-11 .23-12.12.38-20.13 8.57-26 4.15-2.98 10.76-5.11 17.79-7.37a125 125 0 0015.36-5.69c1.1-.55 2.23-1.06 3.28-1.6 7.7-3.68 15.64-7.53 22.28-8.6a47.16 47.16 0 017.21-.5 53.26 53.26 0 017.33.48c14.76 2.09 31.22 11.43 40.96 19.72 6.87 5.85 11.4 13.08 16.23 20.72 5.51 8.76 11.22 17.8 20.88 25.5a69.14 69.14 0 0010.42 6.27c1.36.72 2.72 1.42 3.97 2.15 10.49 5.85 21.33 13.18 31.82 20.24 15.18 10.26 29.53 19.9 42.06 24.95a22.38 22.38 0 008.23 1.7c9.44 0 16.42-7.06 23.1-13.85 2.2-2.22 4.27-4.35 6.5-6.2 5.29-4.6 11.63-8.38 17.75-12.04 5.85-3.47 11.32-6.76 15.93-10.65a79.56 79.56 0 0016.7-19.88v-2.06A77.99 77.99 0 01580.1 914z" fill="#cfd4dd"/><path d="M591.72 69.44c-3.2.23-7.36.47-11.4.47-10.91 0-16.5-1.75-16.6-5.17-.05-1.5-.13-3.08-.2-4.58a46.92 46.92 0 01.11-10.56c2.08-12.34 10.35-25.4 22.65-35.84 3.17-2.7 7-5.64 11.17-8.57V4a158.1 158.1 0 00-11.8 9c-12.5 10.58-20.88 23.87-23 36.44a49.14 49.14 0 00-.15 10.78c.12 1.51.2 3.06.23 4.55.15 4.13 5.89 6.15 17.6 6.15a169 169 0 0011.47-.47q2.8-.19 5.65-.42V69c-1.93.16-3.84.3-5.73.43zM92.61 546.36c-.11 1.5-.19 2.98-.3 4.45-.53 7.63-.98 14.84 2.68 18.8 1.96 2.1 4.87 3.11 8.87 3.11a25.29 25.29 0 002.87-.17c12.91-1.32 21.9-6.15 32.28-11.7 2.72-1.43 5.48-2.89 8.34-4.36a250.67 250.67 0 0123.45-9.98c4.46-1.74 9.06-3.51 13.82-5.54 11.55-4.9 23.7-11.9 21.7-32.85a146.63 146.63 0 00-2.78-15.67c-1.44-6.57-2.95-13.38-3.21-19.61-1.14-21.46 5.36-34.05 16-52.83a186.33 186.33 0 0017.07-39.58 486.9 486.9 0 004.53-15.77c6.3-22.32 11.7-41.63 24.92-57.71l.38-.46a103.1 103.1 0 0111.1-12.04c2.41-2.25 5.02-4.36 7.81-6.57 10.5-8.44 21.33-17.17 21.78-34.31.12-4.57-1.05-9.8-2.18-14.84-1.52-6.6-3.02-13.4-1.78-19.06a18.76 18.76 0 012.57-5.93 22.38 22.38 0 002.34-5.06c9.4-10.74 16.92-22.37 24.2-33.63 7.44-11.44 15.07-23.26 24.84-34.6a33.74 33.74 0 0119.71-11.57 41.16 41.16 0 016.46-.48c2.3 0 4.64.14 6.95.29a82.83 82.83 0 0010.53.11c20.46-1.72 52.06-11.74 55.23-32.31a41.66 41.66 0 00.08-9c-1.82-18.82-11.3-47.1-23.53-59.89l-.11-.1c-6.87-3.85-12.61-9.74-18.2-15.44-4.15-4.22-8.34-8.55-13.1-12.06h-1.66c4.98 3.51 9.44 8.06 14.04 12.78 5.59 5.74 11.4 11.66 18.35 15.57 12.08 12.67 21.45 40.6 23.22 59.23a41.95 41.95 0 01-.11 8.76c-3.06 19.99-34.17 29.78-54.3 31.47a78.07 78.07 0 01-10.38-.14 122 122 0 00-7.02-.26 40.77 40.77 0 00-6.6.47 34.71 34.71 0 00-20.32 11.9c-9.81 11.4-17.51 23.26-24.92 34.74-7.62 11.76-14.83 22.86-24.16 33.58l-.11.19a22.77 22.77 0 01-2.34 4.96 22.34 22.34 0 00-2.68 6.21c-1.25 5.87.3 12.8 1.81 19.48 1.17 5.2 2.3 10.14 2.15 14.6-.41 16.7-11.1 25.26-21.4 33.55-2.65 2.13-5.37 4.32-7.86 6.6a107.23 107.23 0 00-11.17 12.16l-.38.45c-13.37 16.24-18.84 35.64-25.1 58.1a809.95 809.95 0 01-4.53 15.74 185.94 185.94 0 01-17 39.36c-10.76 18.95-17.29 31.67-16.2 53.4.35 6.29 1.82 13.14 3.25 19.76a146.25 146.25 0 012.83 15.54c1.9 20.3-9.92 27.08-21.14 31.86-4.72 2-9.32 3.8-13.78 5.5-7.89 3.07-15.36 5.95-23.52 10.03-2.9 1.47-5.66 2.95-8.34 4.38-10.31 5.53-19.26 10.29-31.94 11.6-.99.08-1.9.14-2.76.14-3.73 0-6.38-.9-8.11-2.77-3.4-3.65-2.95-10.65-2.42-18.05.11-1.47.19-2.98.26-4.47 1.06-20.78-2.38-46.15-3.85-56.08-1.7-22.48 3.44-31.8 8.95-41.65a91.57 91.57 0 005.89-11.97c2.83-7.33 4.98-15.03 7.29-23.18a247.22 247.22 0 018.53-26.67 282.17 282.17 0 018.9-19.16 213.42 213.42 0 0010.54-23.6c2.34-6.85 3.44-14.28 4.45-21.53 1.44-9.82 2.76-19.08 7.18-24.05 2.9-2.19 5.85-4.24 8.76-6.23 7.44-5.13 14.46-9.96 18.76-16.43 3.96-5.9 5.1-13.01 6.16-19.9.98-6.57 1.96-12.78 5.28-17.56 6.6-9.6 18.84-12.59 30.66-15.46 9.81-2.37 19.06-4.64 24.54-10.53 6.34-6.76 4.34-17.51 2.41-27.93-.6-3.34-1.2-6.5-1.5-9.44a77.2 77.2 0 01.1-17.8c1.48-11.2 8.39-26.83 14.2-36.6 9.03-15.1 23.53-20.39 37.57-25.46a142.58 142.58 0 0015.52-6.34 65.2 65.2 0 0031.19-35.53 101.72 101.72 0 003.7-15.23 118.91 118.91 0 013.66-15.14A42.41 42.41 0 01371.73 0h-2a43 43 0 00-18.2 22.63 121.9 121.9 0 00-3.7 15.3 99.5 99.5 0 01-3.7 15.05 64 64 0 01-30.62 34.98 155.37 155.37 0 01-15.44 6.28c-14.24 5.14-28.89 10.5-38.06 25.9-5.89 9.88-12.87 25.64-14.39 36.98a81.9 81.9 0 00-.07 18.05c.26 2.98.87 6.13 1.5 9.5 1.86 10.18 3.82 20.7-2.14 27.08-5.29 5.68-14.43 7.89-24.1 10.23-12 2.92-24.42 5.94-31.21 15.87-3.47 4.96-4.42 11.28-5.48 17.99-1.02 6.75-2.11 13.76-5.92 19.46-4.23 6.3-11.18 11.1-18.54 16.19-2.9 1.98-5.9 4.06-8.84 6.3-4.75 5.27-6.07 14.69-7.51 24.66-1.06 7.17-2.11 14.59-4.45 21.33-2.72 7.85-6.5 15.45-10.5 23.5-3.02 6.22-6.23 12.64-8.88 19.21a235.38 235.38 0 00-8.56 26.78c-2.3 8.14-4.46 15.8-7.3 23.09a87.03 87.03 0 01-5.8 11.85c-5.6 9.98-10.84 19.43-9.07 42.24 1.48 9.93 4.88 35.22 3.86 55.9z" fill="#cfd4dd"/><path d="M589.72 39.17a16.67 16.67 0 01.08 1.85l-.04.24.15.17a4.98 4.98 0 01.94 2.08l.11.4.16.1a2.06 2.06 0 01.56.95 3.3 3.3 0 00.5.93l.1.1a35.36 35.36 0 005.16 2.85v-1.1a33.7 33.7 0 01-4.51-2.53 5.15 5.15 0 01-.34-.62 2.69 2.69 0 00-.76-1.27l-.03-.07a6.47 6.47 0 00-.99-2.38 15.4 15.4 0 00-.1-1.8 16.1 16.1 0 01.1-3.54c.76-3.89 3.17-8.07 6.63-12.19V21.9c-3.98 4.53-6.77 9.16-7.6 13.45a14.7 14.7 0 00-.12 3.83zM165.21 39.68c1.62 9.11 7.67 16.74 15.45 19.4l2.26.11c2.5.1 5.06.2 7.59.2a50.54 50.54 0 0015.74-2.1c17.82-5.64 33.19-25.77 32.25-42.25-.38-7.37-4.04-12.5-10.54-15.04h-3.55c6.23 1.45 12.57 5.32 13.1 15.1.9 16.07-14.16 35.73-31.53 41.23a50.36 50.36 0 01-15.48 2.05c-2.52 0-5.1-.1-7.55-.19l-2.07-.09c-7.36-2.55-13.1-9.87-14.65-18.52l-.04-1.23c-.07-4.38-.18-9.85 2.12-14.34C173.93 13.17 191.9 2.85 208.5 0h-4.8c-15.5 3.87-31.1 13.5-36.31 23.56-2.42 4.7-2.3 10.32-2.23 14.81zM360.63 26.56c-4 6.77-6.23 14.59-8.35 22.14-1.77 6.25-3.47 12.15-6.07 17.36-2.04 4.04-7.7 14.22-17.1 21.31-6.27 4.76-14.12 7.36-22.46 10.12-8.73 2.87-17.79 5.89-25.45 11.6-15.9 11.94-24.24 31.66-25.45 60.28v.05l.08.06c3.4 15.72 8.64 32.24 21.44 35.52a16.32 16.32 0 003.96.5c12.5 0 25.45-13.84 30.43-19.77a89.46 89.46 0 013.74-4.11 58.02 58.02 0 005.21-5.87c5.03-6.57 9.48-14.14 13.74-21.45 5.1-8.64 10.35-17.6 16.58-24.93 6-7.17 13.78-9.85 28.58-9.85 2.42 0 5.02.07 7.93.22 3.28.16 6.8.3 10.23.3 8.46 0 18.5-.75 29.1-6.41 11.6-6.18 18.92-14.18 17.03-33.17-1.17-11.98-5.88-26.82-11.17-35.3C421.98 28.1 398.87 18.06 392 15.4a26.89 26.89 0 00-9.82-1.9c-8.9 0-16.57 4.62-21.55 13.06zm21.56-12.06a25.98 25.98 0 019.47 1.85c6.76 2.62 29.64 12.53 40.14 29.35 5.2 8.37 9.85 23.03 11.02 34.86 1.85 18.45-5.28 26.2-16.5 32.18-10.42 5.56-20.35 6.31-28.66 6.31-3.4 0-6.94-.15-10.19-.32-2.94-.13-5.55-.2-7.97-.2-15.17 0-23.1 2.75-29.4 10.2-6.2 7.4-11.48 16.37-16.62 25.05a206.57 206.57 0 01-13.66 21.39 57.88 57.88 0 01-5.14 5.75c-1.28 1.34-2.64 2.74-3.77 4.15-4.91 5.86-17.6 19.41-29.68 19.41a14 14 0 01-3.7-.45c-12.27-3.16-17.37-19.3-20.72-34.68 1.17-28.25 9.36-47.71 24.99-59.42 7.55-5.66 16.46-8.62 25.18-11.47 8.38-2.8 16.35-5.42 22.76-10.29 9.52-7.2 15.33-17.55 17.37-21.67 2.65-5.28 4.3-11.23 6.12-17.53 2.11-7.48 4.34-15.23 8.3-21.88 4.76-8.12 12.12-12.59 20.66-12.59z" fill="#cfd4dd"/><path d="M345.23 91.17c-4.99 8.1-14.58 10.15-25.71 12.55-6.27 1.36-12.77 2.73-19.03 5.34-18.66 7.67-35.8 29.84-32.62 57.4 1.47 9.21 8.49 18.93 18.99 19.67h.15c27-5.63 39.19-33 48.96-54.99a173.38 173.38 0 018.46-17.46 13.35 13.35 0 019.52-6.77 32.53 32.53 0 015.77-.48c5.74 0 11.97 1.23 18.58 2.48 7.06 1.37 14.38 2.8 21.63 2.8 8.53 0 15.67-2.03 21.86-6.16 6.15-4.08 10.34-11.16 11.82-19.88 2.07-12.42-1.48-26.6-9.33-36.93-8.23-10.86-22.69-18.18-35.98-18.18-9.7 0-17.4 3.94-21.6 11.1-3.81 6.37-6.94 14.87-10.27 23.85-3.43 9.23-6.98 18.77-11.2 25.66zm22.3-49c4.05-6.83 11.4-10.57 20.77-10.57 12.95 0 27.1 7.11 35.15 17.74 7.7 10.15 11.18 24.01 9.14 36.14-1.43 8.48-5.44 15.3-11.33 19.24-6.04 4.02-13.02 5.98-21.33 5.98-7.17 0-14.42-1.4-21.45-2.75-6.64-1.29-12.9-2.51-18.76-2.51a32.14 32.14 0 00-5.92.49 14.34 14.34 0 00-10.24 7.25 185.65 185.65 0 00-8.53 17.55c-9.66 21.78-21.75 48.85-48.17 54.4-9.93-.74-16.54-10.04-18.01-18.8-3.1-27.05 13.74-48.81 31.98-56.33 6.23-2.58 12.68-3.96 18.87-5.3 11.37-2.43 21.18-4.55 26.4-13 4.3-6.96 7.85-16.57 11.25-25.84 3.35-8.93 6.45-17.39 10.19-23.7z" fill="#cfd4dd"/><path d="M364.25 88.68a3.34 3.34 0 00.5 1.47c6.9 8.38 18.76 13.59 31.03 13.59 14.87 0 29.9-8.12 29.94-26.26 0-9.02-4.23-18.63-11.33-25.72-6.34-6.37-14.31-10.05-21.93-10.05a24.25 24.25 0 00-14.65 5c-9.52 7.1-14.35 20.62-14.35 40.17v.28l.26.15c.3.18.42.8.53 1.37zm14.16-41.15a23.14 23.14 0 0114.05-4.8c7.32 0 15.06 3.53 21.21 9.73 6.91 6.9 11.03 16.27 10.99 25.02 0 17.44-14.5 25.26-28.88 25.26-11.93 0-23.56-5.08-30.24-13.2a7.23 7.23 0 01-.3-1.07 3.2 3.2 0 00-.8-1.83c.04-19.1 4.72-32.24 13.97-39.11z" fill="#cfd4dd"/><path d="M396.95 93.41c4.5 0 8.45-1.15 11.21-3.28 4.42-3.36 6.87-9.16 6.6-15.46a21.14 21.14 0 00-9.58-16.95 18.2 18.2 0 00-9.55-2.77 19.61 19.61 0 00-15.18 7.53c-4.12 5.08-5.48 11.64-3.9 18.51 2.7 8.53 12.47 12.42 20.4 12.42zm-15.7-30.31a18.58 18.58 0 0114.38-7.13 16.84 16.84 0 019.02 2.62 19.77 19.77 0 019.06 16.12c.3 5.98-2 11.46-6.15 14.63a17.65 17.65 0 01-10.61 3.07c-7.63 0-16.92-3.66-19.4-11.7a20.38 20.38 0 013.7-17.61zM589.38 563.93c-5.02-5.76-7.74-12.14-10.6-18.91a102.15 102.15 0 00-7.56-15.4c-8.5-10.6-23.03-18-35.3-18-8.11 0-14.76 3.12-19.22 9.03-2.68 3.47-4.15 7.68-5.58 11.76-1.36 3.81-2.76 7.77-5.14 11.02-4.11 5.68-9.28 7.99-13.78 9.68a65.01 65.01 0 01-9.89 2.53c-6.83 1.38-14.6 2.95-21.82 8.08-.08.04-.12.12-.27.17l.08.04-.27.24a45.03 45.03 0 00-5.73 5.78c-10.58 14.42-7.85 42.19 6 60.6a61.82 61.82 0 005.47 6.12c1.51 1.57 3.13 3.16 4.53 4.87 23.9 28.94 44.1 75.43 46.97 108.16 1.54 17.06-5.21 27.1-11.14 35.97-3.06 4.6-5.97 8.93-7.59 13.88-2.9 8.47-2.26 15.21 2 21.17a16.79 16.79 0 0014.5 7.63c6.27 0 13.06-2.55 19.63-5 6.23-2.34 12.12-4.51 17.22-4.51a14.06 14.06 0 013.8.47c2 .59 4.17 2.17 6.09 3.57a20.41 20.41 0 003.74 2.4c12.12 18.63 19.21 34.24 21.14 46.41.72 4.72.64 11.82-1.2 17.01-4.5 12.64-15.94 20.12-27 27.33-3.9 2.59-7.97 5.23-11.7 8.1-2.08 1.6-4.09 3.28-6 4.89-7.94 6.57-15.37 12.76-25.6 12.76a32.64 32.64 0 01-11.18-2.2c-14.73-5.45-29.41-14.68-43.53-23.6-1.93-1.2-3.82-2.37-5.67-3.54-3.24-2.04-6.53-4-9.7-5.9-6.56-3.95-12.72-7.65-17.44-11.18-8.15-6.14-14.16-14.52-19.97-22.63-4.3-5.99-8.76-12.2-14.08-17.52-16.88-16.85-41.99-28.16-62.56-28.16a48.73 48.73 0 00-15.52 2.38c-4.6 1.55-9.17 3.36-13.59 5.15-10.38 4.17-21.1 8.51-34.24 9.67-2.2.18-3.97.28-5.55.34-5.32.26-8 .4-12.04 4l-.12.1-.03.16c-2.58 10.72-.95 21.67.71 32.28a160.3 160.3 0 011.96 17.4c-1.05 16.55-6.26 47.05-29.22 65.23-16.87 13.3-50.74 23.55-72.45 25.37-3.93.34-7.66.5-11.14.5-27.97 0-43.11-10.19-49.15-32.95-.46-6.68-.57-13.23-.68-19.57-.15-4.65-.23-9.03-.42-13.4-.15-4-.41-8.03-.64-11.9-.75-12.15-1.47-23.63-.26-35.12 1.4-13.03 6.49-24.3 11.96-36.22 1.63-3.7 3.37-7.5 4.95-11.33a15.12 15.12 0 00-.23-12.64l-.03-.12-.12-.07c-7.28-5.33-17.6-9.33-27.52-13.18-10.65-4.15-21.67-8.42-29.4-14.43-4.35-3.38-5.9-7.09-7.4-10.69l-.43-1c-1.47-9.83 6.12-16.98 12.96-22.12 11.02-8.29 26.16-18.52 35.56-22.35a19.21 19.21 0 017.17-1.47 15.78 15.78 0 0113.63 7.89c5.17 9.3 6.2 25.31 7.13 39.43.72 11.45 1.44 22.25 4.2 28.08l.07.14.11.1a18.52 18.52 0 009.45 2.1c5.88 0 12.87-1.59 20.34-3.25a148.33 148.33 0 0120.05-3.59c4.2-.36 8.04-.53 11.51-.53 26.4 0 34.1 10.4 42.06 25.09l.08.13.15.1a10.37 10.37 0 004.83 1.45 6.72 6.72 0 002.2-.38l.26-.1.03-.24c1.48-5.25-1.05-9.84-3.5-14.3a44.97 44.97 0 01-2.95-6.1c-1.51-4.07-1.81-9.88-2.2-15.54a86.52 86.52 0 00-1.27-12.61c-1.4-7.1-3.97-15.86-12.35-26.94-4.6-6.08-10.53-12.04-16.27-17.82a275.34 275.34 0 01-10.88-11.28c-2.56-2.9-4.9-6.2-7.43-9.67-4.53-6.26-9.18-12.72-15.22-16.8a14.1 14.1 0 00-8.19-2.47c-5.1 0-10.42 2.23-16.05 4.6-5.88 2.48-12.04 5.06-18.16 5.06a20.49 20.49 0 01-3.73-.34c-6.27-1.2-13.03-7.15-16.47-12.42-7.02-10.77-8.8-21.85-5.35-32.94 5.2-16.72 21.6-30 35.52-35.76 5.74-2.36 11.48-3.36 17.56-4.42 5.66-.98 11.48-2 17.29-4.25 8.91-3.41 15.67-11.55 22.28-19.42 1.62-1.94 3.28-3.94 4.98-5.85 5.13-5.8 11.14-10.4 16.95-14.84 3.21-2.49 6.53-5.02 9.7-7.75 11.51-9.97 19.9-21.4 22.99-31.37 3.59-11.72 1.1-23.1-1.55-35.15-2.49-11.34-5.02-23.06-3.36-37 .87-7.37 3.55-17.36 6.6-28.9 2.31-8.64 4.92-18.46 7.07-28.33 3.78-17.51 8.64-37.28 16.5-51.24 13.06-23.37 36.02-41.77 58.93-58.21 10.95-10.3 13.6-26.92 16.43-44.5 1.88-11.73 3.85-23.85 8.34-34.74 1.05-2.6 3.93-9.1 7.02-12.99 5.25-6.57 11.18-9.78 18.2-9.78 8.2 0 16.99 4.31 25.52 8.42 7.48 3.63 15.18 7.38 22.62 8.4 10.12 1.4 18.46-.32 25.67-5.36 9.29-6.47 11.1-16.16 12.84-25.5 1.28-6.8 2.64-13.85 6.83-19.46 3.36-4.4 7.52-7.64 11.93-11.1 5.13-4.02 10.42-8.19 14.61-14.43 7.97-11.78 7.48-21.83 6.46-41.83-.04-1.3-.15-2.74-.27-4.21-.45-5.53-.94-11.78.57-17.12 1.77-6.63 6.68-9.82 14.87-9.82 8.92 0 20.13 3.72 30.02 7.02a138.42 138.42 0 0014.27 4.27c2.04 2.7 3.78 5.29 5.47 7.78 3.85 5.76 7.55 11.17 13.52 16.21a79.79 79.79 0 0011.25 7.34c2.57 1.47 5.16 2.95 7.61 4.56v-1.22c-2.32-1.5-4.73-2.88-7.08-4.22a78.38 78.38 0 01-11.14-7.21c-5.85-4.97-9.32-10.08-13.32-16.03-1.74-2.55-3.51-5.19-5.6-7.97l-.1-.16-.2-.04a133.67 133.67 0 01-14.34-4.24c-10-3.34-21.3-7.1-30.35-7.1-8.72 0-13.93 3.46-15.9 10.57-1.47 5.51-.98 11.85-.57 17.46.12 1.45.23 2.89.3 4.19.99 19.78 1.48 29.73-6.26 41.22-4.12 6.12-9.37 10.23-14.46 14.2-4.46 3.49-8.65 6.8-12.08 11.28-4.38 5.8-5.74 12.95-7.02 19.88-1.74 9.16-3.48 18.63-12.43 24.88a30.9 30.9 0 01-18.57 5.62 46.85 46.85 0 01-6.38-.43c-7.29-1.02-14.95-4.74-22.31-8.32-8.65-4.17-17.56-8.52-25.98-8.52-7.36 0-13.55 3.34-19.03 10.15-3.17 3.99-6.04 10.6-7.13 13.22-4.57 11-6.54 23.17-8.38 34.95-2.83 17.43-5.48 33.89-16.09 43.9-22.95 16.49-46.02 34.97-59.16 58.5-7.89 14.1-12.83 33.95-16.65 51.52-2.1 9.85-4.72 19.67-6.98 28.29-3.1 11.59-5.78 21.57-6.65 29.05-1.7 14.1.87 25.92 3.4 37.33 2.6 11.9 5.06 23.14 1.51 34.62-3.05 9.78-11.29 21.04-22.69 30.92-3.13 2.7-6.42 5.25-9.63 7.7-5.85 4.49-11.89 9.12-17.1 14.99-1.7 1.9-3.36 3.92-4.98 5.87-6.53 7.77-13.25 15.8-21.86 19.13-5.74 2.2-11.55 3.21-17.14 4.2-5.85 1-11.9 2.05-17.7 4.47-14.2 5.83-30.85 19.37-36.17 36.39-3.51 11.38-1.67 22.74 5.51 33.79 3.55 5.45 10.57 11.6 17.1 12.85a21.09 21.09 0 003.93.36c6.34 0 12.53-2.6 18.54-5.12 5.55-2.36 10.8-4.53 15.66-4.53a13.24 13.24 0 017.63 2.29c5.89 3.98 10.5 10.36 14.99 16.55 2.38 3.34 4.87 6.8 7.47 9.76a262.1 262.1 0 0010.91 11.3c5.7 5.76 11.6 11.7 16.16 17.7 8.3 10.95 10.84 19.56 12.2 26.52a90.23 90.23 0 011.28 12.52c.34 5.98.72 11.63 2.2 15.82a41.27 41.27 0 003.05 6.24c2.42 4.38 4.68 8.52 3.47 13.27-1.66.53-3.47.23-5.81-1.04-8.12-14.92-16-25.5-42.9-25.5-3.46 0-7.4.2-11.58.55a152.39 152.39 0 00-20.2 3.6c-7.4 1.67-14.39 3.23-20.12 3.23a17.6 17.6 0 01-8.8-1.88c-2.6-5.69-3.33-16.35-4.04-27.58-.9-14.23-2-30.37-7.25-39.87a16.8 16.8 0 00-14.5-8.41 20.66 20.66 0 00-7.6 1.54c-9.47 3.87-24.68 14.18-35.78 22.5-7.03 5.3-14.92 12.73-13.33 23.15l.5 1.17c1.58 3.71 3.2 7.55 7.73 11.08 7.82 6.11 18.92 10.42 29.64 14.59 9.85 3.79 20 7.74 27.18 12.95a14.17 14.17 0 01.19 11.74c-1.59 3.8-3.32 7.6-4.98 11.26-5.48 12.03-10.61 23.4-12 36.55-1.25 11.57-.53 23.1.22 35.31.27 3.85.5 7.9.64 11.87.23 4.36.3 8.72.42 13.39.11 6.34.23 12.89.68 19.7 6.23 23.37 21.67 33.79 50.17 33.79 3.48 0 7.29-.17 11.22-.51 21.86-1.81 55.99-12.14 73.01-25.6 23.26-18.38 28.5-49.2 29.57-66a138.56 138.56 0 00-2-17.57c-1.55-10.44-3.21-21.26-.72-31.71 3.7-3.29 6.08-3.4 11.29-3.65 1.62-.07 3.4-.17 5.59-.36 13.28-1.15 24.12-5.53 34.58-9.72 4.34-1.8 8.87-3.62 13.48-5.13a48.06 48.06 0 0115.21-2.32c20.31 0 45.16 11.2 61.84 27.86 5.29 5.25 9.67 11.42 13.97 17.4 5.85 8.17 11.93 16.59 20.2 22.82 4.76 3.54 10.91 7.3 17.56 11.25 3.13 1.9 6.41 3.87 9.66 5.89 1.85 1.15 3.74 2.35 5.63 3.54 14.23 8.95 28.88 18.22 43.8 23.71a32.75 32.75 0 0011.47 2.23c10.57 0 18.2-6.3 26.24-12.99 1.93-1.62 3.93-3.28 6-4.87 3.7-2.83 7.74-5.47 11.63-8.02 11.18-7.34 22.77-14.91 27.37-27.86 1.93-5.38 2-12.66 1.25-17.52-1.93-12.32-9.1-28.1-21.4-46.92l-.08-.11-.12-.06a20.13 20.13 0 01-3.66-2.34 21.92 21.92 0 00-6.42-3.74 14.65 14.65 0 00-4.07-.54c-5.25 0-11.25 2.24-17.6 4.62-6.49 2.42-13.21 4.91-19.25 4.93a15.82 15.82 0 01-13.67-7.2c-4.04-5.7-4.64-12.13-1.92-20.28 1.66-4.84 4.49-9.1 7.55-13.63 6-9 12.8-19.24 11.29-36.66-2.95-32.88-23.19-79.63-47.24-108.68a59.53 59.53 0 00-4.57-4.92 60.68 60.68 0 01-5.36-6.03c-13.63-18.1-16.35-45.32-6-59.4a40.68 40.68 0 015.58-5.64 4.67 4.67 0 00.57-.53c6.95-4.89 14.53-6.4 21.22-7.76a67.05 67.05 0 0010.04-2.57c4.65-1.77 9.97-4.13 14.23-10.03 2.5-3.35 3.9-7.39 5.29-11.27 1.43-3.99 2.87-8.14 5.44-11.5 4.26-5.65 10.64-8.63 18.42-8.63 11.97 0 26.17 7.25 34.43 17.57a96.94 96.94 0 017.52 15.2c2.87 6.86 5.58 13.33 10.76 19.2a66.63 66.63 0 008.82 8.04v-1.28a62.5 62.5 0 01-8.07-7.42z" fill="#cfd4dd"/><path d="M591.8 187.24a99.78 99.78 0 00-2.08 11.95c-.64 6.45.08 12.1.76 17.57.8 6.6 1.7 13.36.11 21.48a27.31 27.31 0 01-6.9.8c-2.35 0-4.69-.22-7.14-.42s-5.02-.4-7.59-.4a35.4 35.4 0 00-5.29.36c-15.66 2.28-35.75 13.9-41 28.67-2.52 7.19-1.88 13.63 1.97 19.14 6.23 9 19.48 13.27 29.83 13.47h1.13c22.43 0 35.75-13.26 40.81-25.7a28.36 28.36 0 001.04-3.23v-4.25a47 47 0 01-1.98 7.08c-4.91 12.16-17.98 25.1-39.87 25.1l-1.1-.01c-10.11-.21-23.03-4.31-29.07-13.03-3.62-5.25-4.22-11.38-1.8-18.25 5.1-14.42 24.83-25.77 40.2-28.01a36.43 36.43 0 015.13-.34c2.53 0 5.06.2 7.51.4 2.35.2 4.84.41 7.22.41a27.9 27.9 0 007.47-.89l.3-.07.08-.32c1.66-8.42.8-15.39-.04-22.12-.68-5.4-1.43-11-.8-17.35a89.5 89.5 0 012.12-11.8 99.52 99.52 0 014.63-14.25v-2.76a108.52 108.52 0 00-5.65 16.77z" fill="#cfd4dd"/><path d="M584.36 116.12a72.9 72.9 0 00-9.93-5.89 296.4 296.4 0 01-6.46-3.5c-1.73-.99-3.5-2-5.2-3-10.43-5.96-20.28-11.62-27.9-13.89a24.4 24.4 0 00-6.88-1.13c-11.81 0-14.12 12.31-16.3 24.22-1.03 5.21-2 10.6-3.78 14.93-4.04 9.85-11.29 17.4-20.43 27.01-2.22 2.36-4.57 4.8-7.06 7.5-5.89 7.43-8.11 15.15-10.34 22.6-2.27 7.69-4.38 14.94-10.27 21.22-7.48 7.97-18.8 10.4-23.33 11.08a55.48 55.48 0 01-7.97.6c-12.34 0-22.96-4.22-32.32-7.94-7.55-3-14.08-5.59-20.2-5.59-6.5 0-11.66 2.96-16.34 9.33-8.27 11.36-10.54 26.74-12.8 41.61-2.23 14.84-4.3 28.88-11.97 38.53a60.3 60.3 0 01-8.42 8.42 186.16 186.16 0 01-18.7 13.51c-6.44 4.27-12.56 8.29-18.03 13.21-24.1 21.9-32.82 47.9-39.04 82.71-.99 5.33-1.93 10.42-2.91 15.35-2.65 13.57-5.1 26.43-6.23 40.92-.83 11.35 1.47 19.46 3.66 27.33a91.34 91.34 0 013.25 14.18 66.6 66.6 0 01.03 17.53c-2.83 17.55-15.44 29.79-27.63 41.62-7.78 7.55-15.82 15.37-21.22 24.48-3.4 5.7-5.2 12.4-7.1 19.46-1.66 6.25-3.4 12.7-6.38 18.97a68.98 68.98 0 01-5.4 9.16c-5.02 7.57-9.74 14.7-8.5 29.82-.1 24.6 14.13 50.9 39.04 72.23 4.38 3.8 11.18 11.74 14.92 16.93 8 11.03 13.97 23.41 19.7 35.41 3.63 7.5 6.99 14.58 10.8 21.1 3.1 5.39 6.42 9.18 13.44 11.69a26.44 26.44 0 008.92 1.53c6.49 0 12.94-2.29 19.74-4.7 8.34-2.95 17.82-6.27 29.49-6.27a63.34 63.34 0 019.55.74c19.94 2.96 42.14 16.82 55.05 27.76 6.38 5.43 11.93 11.97 17.3 18.3 5.4 6.37 10.97 12.96 17.43 18.4 5.06 4.3 12.54 8.96 19.75 13.43l1.85 1.17c3.66 2.3 7.28 4.65 10.8 6.91 12.12 7.85 23.56 15.27 36.58 20.33a81.91 81.91 0 009.14 3.04 33.38 33.38 0 006.38.64c13.82 0 24.05-9.42 33.98-18.52a220.2 220.2 0 015.92-5.36c16.66-12.97 16.92-41.56 6.08-56.57-3.55-4.85-8.04-6.9-14.99-6.9a96.8 96.8 0 00-10.8.88 121.24 121.24 0 01-15.29 1.2 68.8 68.8 0 01-9.58-.67c-10.05-1.5-17.22-6.76-20.13-14.85-4.76-13-.83-29.01 2.72-36.06a85.9 85.9 0 017.7-11.92c5.44-7.4 10.57-14.4 11.44-27.71.87-13.46-5.51-34.92-11.82-49.13-11.32-25.47-21.03-43.34-28.84-53.08-1.89-2.34-4.15-4.64-6.53-7.1-2.2-2.25-4.5-4.57-6.5-6.97-8.91-10.68-14.38-24.78-15.7-40.79-1.32-15.59.41-31.36 3.92-36.7 3.52-5.23 11.6-8.27 20.16-11.5 8.38-3.13 17-6.38 22.32-11.99a22.34 22.34 0 005.85-18.6 12.31 12.31 0 00-6.38-9.3c-8.87-4.47-24.39-6.14-39.42-7.79-9.1-1-18.53-2.02-26.31-3.66-13.07-2.77-22.61-16.12-31.83-29.05a229.4 229.4 0 00-7.17-9.76c-.5-.7-1.1-1.41-1.66-2.13-9.02-11.48-19.26-24.48-14.95-47.26 1.47-7.65 5.4-17.52 9.17-27.05l.83-2.12c1.85-4.58 3.44-9.11 4.91-13.51 3.89-11.34 7.55-22.08 14.91-30.5 8.08-9.27 26.02-15.51 44.59-15.51 16.12 0 28.88 4.8 34.05 12.83a84.72 84.72 0 017.03 14.54c3.62 8.89 6.98 17.25 17.67 24.42 5.28 3.5 11.96 6.34 17.85 8.74 1.25.49 2.76 1 4.3 1.5 6.16 2.1 14.61 4.93 18.73 11.73 6.72 11.08-2.95 24.44-9.97 34.18-1.92 2.7-3.58 5-4.75 7-5.06 8.72-8.3 21.14-9.37 35.86-1.77 24 10.8 27.3 25.41 31.13 3.4.9 6.95 1.83 10.46 3.06 8.87 3.17 19.25 7.98 28.88 19.67 3.7 4.53 6.3 9.62 9.02 14.98 2.65 5.16 5.37 10.46 9.14 15.25l.25.3v-1.7a93.69 93.69 0 01-8.44-14.28c-2.68-5.19-5.4-10.57-9.21-15.17-9.74-11.9-20.31-16.78-29.34-19.97-3.5-1.27-7.1-2.21-10.53-3.12-14.16-3.7-26.35-6.9-24.66-30.09 1.1-14.55 4.31-26.82 9.26-35.42 1.13-1.97 2.83-4.25 4.72-6.91 7.2-9.97 17.06-23.65 10-35.3-4.35-7.1-12.96-10-19.3-12.14-1.55-.53-3.02-1.02-4.22-1.5-5.86-2.37-12.5-5.18-17.68-8.65-10.42-6.99-13.74-15.23-17.29-23.96a85.66 85.66 0 00-7.13-14.7c-5.36-8.32-18.39-13.29-34.89-13.29-18.87 0-37.07 6.37-45.38 15.86-7.44 8.57-11.14 19.38-15.1 30.84a265.9 265.9 0 01-4.83 13.46l-.83 2.11c-3.82 9.6-7.78 19.5-9.22 27.24-4.45 23.22 5.97 36.4 15.1 48.08.61.71 1.14 1.43 1.7 2.13 2.38 3.04 4.65 6.28 7.1 9.72 9.33 13.08 19 26.6 32.47 29.44 7.82 1.66 17.25 2.68 26.4 3.69 14.94 1.62 30.35 3.3 39.03 7.68 3.1 1.56 5.17 4.6 5.9 8.57 1.05 5.98-1.22 13.1-5.6 17.74-5.17 5.43-13.7 8.64-21.97 11.74-8.72 3.28-16.91 6.4-20.61 11.89-4.2 6.32-5.25 23.57-4.08 37.35 1.36 16.2 6.83 30.5 15.93 41.34 2.04 2.43 4.34 4.76 6.53 7.02 2.38 2.44 4.6 4.72 6.46 7.02 7.77 9.69 17.4 27.47 28.73 52.87 6.23 14.1 12.61 35.35 11.74 48.62-.9 13.05-5.93 19.93-11.29 27.22a88.6 88.6 0 00-7.77 12.04c-3.63 7.21-7.6 23.56-2.8 36.86 3.1 8.46 10.53 13.98 21 15.5a67.83 67.83 0 009.7.69 122.67 122.67 0 0015.43-1.2 93.59 93.59 0 0110.65-.88c6.6 0 10.84 1.94 14.16 6.49 10.61 14.65 10.35 42.54-5.89 55.21-2 1.74-4 3.59-5.96 5.38-9.78 8.99-19.9 18.27-33.3 18.27a31.8 31.8 0 01-6.2-.64 73.59 73.59 0 01-8.98-2.98c-12.88-5-24.32-12.4-36.4-20.24-3.47-2.28-7.1-4.6-10.83-6.92l-1.82-1.14c-7.17-4.49-14.6-9.11-19.63-13.38-6.42-5.4-11.96-11.95-17.33-18.27-5.36-6.36-10.9-12.93-17.36-18.4-13.03-11.04-35.38-25-55.58-28.03a67.59 67.59 0 00-9.7-.73c-11.85 0-21.36 3.36-29.78 6.36-6.76 2.36-13.1 4.6-19.45 4.6a25.57 25.57 0 01-8.57-1.47c-6.72-2.38-9.93-6.04-12.91-11.22a319.41 319.41 0 01-10.76-21.04c-5.78-12.04-11.74-24.48-19.78-35.58-3.78-5.23-10.69-13.25-15.1-17.08-24.7-21.12-38.81-47.19-38.66-71.52-1.2-14.8 3.43-21.82 8.3-29.22a79.23 79.23 0 005.52-9.28c2.98-6.37 4.72-12.86 6.42-19.14 1.84-7 3.62-13.63 6.94-19.22 5.36-9 13.4-16.76 21.1-24.27 12.31-11.95 25.07-24.31 27.94-42.15a70.7 70.7 0 00-.04-17.88 101.76 101.76 0 00-3.24-14.3c-2.23-7.78-4.5-15.82-3.67-26.97 1.1-14.44 3.6-27.24 6.23-40.8.91-4.92 1.93-10.03 2.87-15.36 6.2-34.63 14.84-60.45 38.74-82.14 5.4-4.89 11.48-8.9 17.93-13.14a189.8 189.8 0 0018.8-13.55 65.4 65.4 0 008.53-8.6c7.78-9.86 9.97-24.02 12.2-38.99 2.2-14.77 4.5-30.02 12.61-41.16 4.46-6.1 9.4-8.93 15.52-8.93 5.93 0 12.38 2.55 19.82 5.5 9.48 3.77 20.2 8.03 32.7 8.03a55.38 55.38 0 008.12-.6c4.6-.7 16.23-3.2 23.9-11.36 6.08-6.47 8.23-13.85 10.53-21.67 2.15-7.34 4.42-14.97 10.12-22.23 2.46-2.64 4.8-5.08 7.02-7.44 9.22-9.68 16.5-17.3 20.66-27.33 1.8-4.42 2.83-9.87 3.77-15.14 2.27-12 4.38-23.38 15.37-23.38a23.9 23.9 0 016.6 1.09c7.48 2.23 17.3 7.85 27.68 13.8l5.2 2.96a185.9 185.9 0 006.46 3.53 78.13 78.13 0 019.82 5.81c19.93 15.84 14.57 30.64 5.62 55.14l-1.32 3.6c-2.38 6.69-4.19 13.31-5.77 19.14a142.55 142.55 0 01-4.87 15.67c-2.12 5.29-3.78 8.34-7.37 11.25-5.28 4.28-12.23 7.7-19.59 11.34-11.74 5.82-25.03 12.4-33.75 23.96-5.44 7.17-12.69 26.12-.57 38.9 9.22 9.7 29.15 12.34 37.34 13.02 3.74.32 7.29.47 10.54.47 13.1 0 22.12-2.43 29.4-7.93a38.2 38.2 0 004.03-3.57v-1.44a38.51 38.51 0 01-4.63 4.22c-7.06 5.34-15.97 7.72-28.8 7.72-3.21 0-6.76-.15-10.46-.47-8.08-.68-27.75-3.26-36.7-12.7-11.56-12.2-4.42-30.92.64-37.62 8.57-11.34 21.78-17.9 33.45-23.65 7.36-3.66 14.38-7.13 19.74-11.47 3.78-3.04 5.44-6.2 7.67-11.65a145.59 145.59 0 004.87-15.8c1.59-5.8 3.4-12.42 5.81-19.04l1.32-3.6c3.06-8.44 5.75-15.87 7.09-22.66v-15.51c-1.62-6.26-5.6-12.16-13.1-18.11zM322.57 120.1l-.15-.1a23.39 23.39 0 00-11.32-2.96c-8.92 0-18.01 5.38-24.32 14.34-6.94 9.76-9.13 21.67-5.81 31.14a11.12 11.12 0 0010.8 7.31 20.2 20.2 0 0011.74-4.25c12.15-8.87 25.56-32.73 19.18-45.35zm-19.67 44.7a19.32 19.32 0 01-11.14 4.04 10.1 10.1 0 01-9.85-6.66c-3.25-9.14-1.02-20.7 5.66-30.2 6.16-8.72 14.99-13.94 23.52-13.94a22.35 22.35 0 0110.72 2.8c5.56 11.23-6.11 34.58-18.91 43.96z" fill="#cfd4dd"/><path d="M508.1 241.73c4.04-2.4 8.23-4.6 12.68-6.94 12.65-6.69 25.72-13.6 34.85-24.4 11.1-13.09 23.83-37.78 26.01-56.45 2.08-17.76-12.34-30-27.7-32.91a29.9 29.9 0 00-5.7-.55c-8.05 0-15.34 3.55-21 10.27a278.18 278.18 0 00-11.14 14.14 275 275 0 01-10.6 13.51c-1.74 2.11-3.6 4.11-5.37 6.08-3.66 3.98-7.17 7.76-9.7 12.02-3.29 5.53-4.9 11.08-6.65 16.97-1.62 5.68-3.35 11.55-6.71 17.46-8.27 14.42-30.44 18.03-46.48 19.48-3.62.32-7.93.5-12.76.5-6.12 0-12.24-.26-16.28-.48l-3.92-.2c-2.95-.18-5.44-.31-7.78-.31-7.1 0-12.16 1.3-17.1 7.9a38.04 38.04 0 00-4 7.86l-.11.32c-3.33 8.06-4.76 16.85-6.12 25.35-2.26 14.29-4.42 27.76-15.25 36.37a58.74 58.74 0 01-6 3.98c-6.23 3.72-12.27 6.68-18.09 9.55-14.42 7.12-27.97 13.84-41.53 29.86-13.51 16-21.78 44.21-24 81.62-1.48 25.22.7 42.32 7.1 55.38a52.4 52.4 0 004.1 6.8 30.88 30.88 0 015.63 12c2.11 9.24-2.83 17.76-4.72 20.97-5.96 10.19-13.52 20.83-24.39 34.57-2.53 3.17-5.36 6.25-8.3 9.5-6.76 7.45-13.78 15.15-17.33 24.2-2.98 7.47-2.27 16.63-1.55 25.48.64 8.11 1.25 15.8-.83 22-1.81 5.4-5.44 10.31-9.33 15.56-6.83 9.14-14.5 19.53-12.6 34.52 4.22 24.26 24.69 39.13 46.36 54.89 8.72 6.38 17.82 12.97 25.86 20.27 2.94 2.74 5.66 5.38 8.3 7.93 7.78 7.6 14.5 14.14 23.4 17.82 7.67 3.17 15.67 4.94 23.41 6.66 4.12.93 8.42 1.9 12.5 3.02 23.9 6.72 43.99 18.91 58.79 28.79a163.5 163.5 0 0111.4 8.68c8.64 7 17.63 14.23 26.84 16.27a18.97 18.97 0 004.23.49c13.78 0 22.27-15.56 26.09-24.82 2.26-5.44 3.51-11.91 4.83-18.76a137.76 137.76 0 014.56-18.67c2.04-5.9 5.21-12 8.27-17.87 4.38-8.37 8.5-16.28 9.74-23.86 2.6-15.86-1.59-29.9-12.38-41.73-3.44-3.76-7.86-6.78-12.16-9.67-7.36-5.04-14.39-9.76-16.54-18.14 3.1-18.34-1.43-26.25-7.17-36.24l-1.06-1.86c-7.96-14-10.87-29.05-13.97-45-1.47-7.57-2.94-15.39-5.06-23.48a175.7 175.7 0 00-10.87-30.9c-3.44-7.44-8.08-14.61-12.57-21.54a248.72 248.72 0 01-8.53-13.67 206.94 206.94 0 01-6.39-15.29c-2.79-7.3-5.73-14.8-10.04-22.2a120.7 120.7 0 00-8.34-11.9c-8.84-11.52-17.18-22.4-13.67-49.1 1.29-9.74 5.55-19.54 10.04-29.9 1.59-3.58 3.17-7.3 4.72-11.08a167.51 167.51 0 006.38-21c2.38-9.22 4.61-17.92 8.95-25.45 9.06-15.72 38.2-19.68 65.58-21.48 1.85-.13 3.74-.23 5.63-.32 10.8-.55 21.97-1.13 28.54-6.66 7.59-6.36 9.21-16.48 10.8-26.27 1.17-7.54 2.45-15.33 6.5-21.1a44.5 44.5 0 019.7-8.84zm-17.22 29.79c-1.5 9.6-3.13 19.51-10.42 25.65-6.3 5.3-17.33 5.89-27.97 6.41-1.89.12-3.78.21-5.63.34-27.6 1.82-57.08 5.84-66.33 22-4.42 7.64-6.65 16.4-9.06 25.66-1.78 6.86-3.55 13.95-6.38 20.9-1.51 3.76-3.1 7.48-4.68 11.04-4.54 10.44-8.8 20.31-10.12 30.19-3.63 27.12 4.87 38.14 13.85 49.82a107.36 107.36 0 018.23 11.82c4.3 7.32 7.21 14.8 10 22.05 1.96 5.02 3.97 10.21 6.42 15.4 2.64 4.64 5.66 9.27 8.6 13.74 4.43 6.9 9.07 14.04 12.5 21.4a179.65 179.65 0 0110.8 30.75 364.66 364.66 0 015.07 23.38c3.13 16.05 6.04 31.2 14.04 45.34l1.1 1.85c5.67 9.85 10.08 17.63 7.06 35.7l-.03.13.03.1c2.23 8.8 9.7 13.86 17 18.8 4.23 2.86 8.6 5.82 11.96 9.5 10.57 11.61 14.65 25.37 12.08 40.9-1.2 7.42-5.28 15.28-9.59 23.56-3.1 5.91-6.26 12-8.34 18a134.87 134.87 0 00-4.57 18.8c-1.36 6.8-2.6 13.21-4.8 18.57-3.73 9.02-12 24.18-25.18 24.18a18.68 18.68 0 01-4.04-.45c-8.98-2-17.81-9.16-26.39-16.08-4-3.23-7.77-6.27-11.47-8.74-14.84-9.9-35.04-22.16-59.09-28.92a261.6 261.6 0 00-12.57-3.02c-7.7-1.7-15.63-3.49-23.18-6.6-8.76-3.6-15.4-10.1-23.1-17.61-2.64-2.57-5.36-5.21-8.35-7.95-8.07-7.36-17.17-13.97-25.97-20.35-21.48-15.64-41.8-30.4-45.95-54.23-1.85-14.55 5.4-24.33 12.42-33.78 3.93-5.29 7.67-10.27 9.48-15.82 2.15-6.4 1.55-14.18.9-22.4-.67-8.74-1.4-17.78 1.44-25.03 3.47-8.89 10.46-16.5 17.14-23.9 3.02-3.26 5.82-6.34 8.34-9.55 11-13.76 18.5-24.46 24.5-34.69 1.93-3.3 7.06-12.06 4.87-21.72a33.5 33.5 0 00-5.77-12.31 49.24 49.24 0 01-4.04-6.7c-6.3-12.9-8.46-29.82-7.03-54.87 2.2-37.19 10.43-65.2 23.75-81.05 13.45-15.86 26.92-22.5 41.23-29.58 5.85-2.89 11.9-5.87 18.16-9.57a67.53 67.53 0 006.08-4.06c11.17-8.87 13.33-22.55 15.67-37.01 1.32-8.46 2.71-17.18 6.04-25.14l.11-.3a39.88 39.88 0 013.85-7.64c4.72-6.27 9.55-7.51 16.31-7.51 2.34 0 4.8.13 7.74.32 1.25.05 2.57.13 3.93.2 4.04.2 10.15.47 16.3.47 4.84 0 9.22-.17 12.88-.51 16.24-1.47 38.74-5.17 47.23-19.99 3.44-6 5.14-11.93 6.87-17.69 1.66-5.8 3.29-11.3 6.54-16.74 2.48-4.13 5.88-7.89 9.51-11.83 1.81-1.96 3.66-3.98 5.47-6.08 3.74-4.5 7.21-9.12 10.57-13.59 3.52-4.66 7.18-9.5 11.1-14.1 5.56-6.57 12.39-9.9 20.24-9.9a29.57 29.57 0 015.52.52c14.9 2.83 28.88 14.67 26.88 31.84-2.12 18.46-14.8 42.93-25.75 55.9-9.02 10.66-22.01 17.5-34.59 24.15a279.57 279.57 0 00-12.68 6.97 44.4 44.4 0 00-10.04 9.11c-4.17 5.97-5.45 13.88-6.7 21.55z" fill="#cfd4dd"/><path d="M550.08 202.9c11.14-14.77 22.61-36.73 21.52-50-.9-11.06-10.54-19.72-21.86-19.72a22.67 22.67 0 00-12.91 4.1c-3.67 2.5-6.84 6.36-9.93 10.1a113.9 113.9 0 01-4.23 4.98c-2.75 2.99-5.7 5.9-8.53 8.72a124.37 124.37 0 00-11.56 12.33c-12.46 16.27-14.65 35.8-14.34 49.32l.04.13c1.4 4.55 4.19 6.85 8.98 7.47a29.59 29.59 0 003.93.27c17.55 0 38.66-14.06 48.89-27.7zm-60.82 19.75c-.3-13.36 1.85-32.62 14.12-48.62a124.28 124.28 0 0111.44-12.23c2.86-2.84 5.85-5.76 8.57-8.76 1.47-1.62 2.9-3.34 4.26-5.02 3.21-3.85 6.23-7.5 9.74-9.91a21.69 21.69 0 0112.35-3.93c10.8 0 20 8.27 20.88 18.8 1.02 12.44-9.97 34.23-21.37 49.32-10.08 13.4-30.85 27.3-48.06 27.3a27.42 27.42 0 01-3.78-.24c-4.41-.61-6.83-2.62-8.15-6.7z" fill="#cfd4dd"/><path d="M512.4 217.95a27.68 27.68 0 005.78-.66c9.78-2.06 21.14-14.46 28.5-25.37 9.2-13.63 14.27-27.3 12.8-34.84-1.63-8.15-6.46-9.87-10.27-9.87-3.97 0-8.99 1.92-13.4 5.17-14 10.21-29.41 27.84-34.36 39.26l-.04.15a35.8 35.8 0 01-1.01 5.31c-.68 2.72-1.44 5.5-1.06 8.66 1.55 5.43 3.5 12.19 13.06 12.19zm-11.06-20.63a40.26 40.26 0 001.1-5.34c4.86-11.3 20.08-28.7 33.97-38.79 4.23-3.12 9.03-4.98 12.8-4.98 4.98 0 8.08 3.05 9.25 9.08 3.2 16.3-23.71 55.47-40.5 59a27.05 27.05 0 01-5.56.66c-8.76 0-10.53-6.12-12.04-11.4-.34-2.85.3-5.45.98-8.23z" fill="#cfd4dd"/><path d="M519.5 200.26c4.6 0 11.9-6.56 14.16-12.77 1.43-3.74.87-6.85-1.59-8.97l-.15-.11h-.23c-7.28.18-14.23 7.57-15.59 14.02-.56 3.17-.34 5.42.76 6.7a3.33 3.33 0 002.64 1.13zm-2.42-7.62c1.36-6.57 8.38-12.91 14.46-13.21 2.5 2.28 2.04 5.43 1.21 7.71-2.34 6.24-9.44 12.12-13.25 12.12a2.41 2.41 0 01-1.89-.77c-.83-1.02-1.06-3.06-.53-5.85zM577.15 355.47l-.2.13c-2.14 4.12-3.12 10.54-4.22 17.35-1.02 6.48-2.04 13.16-4.15 19.12-5.25 14.73-13.82 28.3-21.4 40.22q-1.2 1.93-2.39 3.8c-4.8 7.6-9.32 14.82-9.25 30.15v.13c4.23 14.35 17.67 20.08 30.7 25.65 7.44 3.21 14.54 6.23 19.9 10.76a103.1 103.1 0 0111.3 11.4v-1.56a99.93 99.93 0 00-10.66-10.6c-5.48-4.62-12.6-7.66-20.12-10.9-12.8-5.48-26.01-11.13-30.1-24.98-.03-14.97 4.43-22.05 9.1-29.52.8-1.23 1.6-2.5 2.39-3.78 7.58-12 16.19-25.57 21.48-40.4 2.15-6.09 3.2-12.82 4.22-19.33 1.02-6.69 2-13 4.08-16.94 2.95-2.35 5.78-4.49 8.5-6.54 3.97-3.03 7.65-5.82 11.12-8.9v-1.35c-3.64 3.3-7.5 6.23-11.73 9.44-2.76 2.09-5.59 4.22-8.57 6.65z" fill="#cfd4dd"/><path d="M558.54 438.34c-.72 1.3-1.4 2.43-2.04 3.49-3.63 6.04-5.63 9.36-4.84 21.42v.17l.12.15a7.55 7.55 0 011.5 2.55 11.29 11.29 0 00.61 1.28l.08.15c5.66 5.6 14.15 9.2 21.63 9.2h.04a17.62 17.62 0 0010.64-3.23c3.9-2.9 6.3-8.1 8.92-13.61.72-1.55 1.46-3.12 2.25-4.65v-2.16a124.94 124.94 0 00-3.16 6.38c-2.53 5.41-4.94 10.49-8.61 13.23a16.38 16.38 0 01-10.04 3.03c-7.1 0-15.52-3.56-20.88-8.85a8.6 8.6 0 01-.53-1.17 10.34 10.34 0 00-1.58-2.73c-.76-11.57 1.2-14.8 4.72-20.63a66.48 66.48 0 002.07-3.53l2.23-3.93c10.3-18.18 22.77-40.15 35.78-60.55v-1.85c-13.32 20.8-26.1 43.34-36.65 61.91zM212.25 417.86c2.04-3.38 4-6.57 5.78-9.75 10.5-18.47 14.57-37.6 18.58-56.09 3.88-18.17 7.58-35.37 17.25-48.13 4.9-6.53 11.59-12.29 18.65-18.4a248.9 248.9 0 005.32-4.66c.64-.55 1.29-1.1 1.93-1.69 7.36-6.4 15.74-13.66 13.03-28.46-2.88-15.78-15.14-23.84-34.21-22.27-9.63.77-38.96 3.19-49.84 13.47-6.3 5.91-8.57 15.28-10.83 24.3-1.74 7.15-3.44 13.93-6.91 18.57-4.38 5.84-10.2 10.65-15.78 15.35-6.57 5.5-12.8 10.65-16.84 17.27-3.14 5.1-5.81 11.4-8.61 18.08a370.6 370.6 0 01-3.55 8.12 408.77 408.77 0 01-8.72 17.93c-6.42 12.65-13.06 25.7-17.48 41.53-2.19 7.9-3.62 16.95-5.06 25.69a383.9 383.9 0 01-2.23 13c-.98 5.45-2.11 10.24-3.2 14.9-3.33 14.33-6.16 26.73-4.69 49.99a122.9 122.9 0 012.42 13.06c1.4 9.5 2.87 19.29 8.72 27.24l.15.13a39.52 39.52 0 009.44 3.28l.3.1.08-.06a320.52 320.52 0 0053.65-17.44c5.17-2.2 12.04-5.91 15.29-11.06 5.32-8.48 3.4-20.99 1.36-34.2-1.47-9.31-2.95-18.94-2-27.77 1.5-14.82 10.26-29.27 18-42.03zm-17.02 69.95c2 13.02 3.89 25.34-1.21 33.52-2.46 3.9-7.59 7.58-14.8 10.66a320.97 320.97 0 01-53.35 17.37l-.07-.02a40.36 40.36 0 01-9.07-3.12c-5.66-7.75-7.06-17.38-8.49-26.7a131.59 131.59 0 00-2.38-13.08c-1.47-23.01 1.36-35.32 4.64-49.59 1.1-4.66 2.23-9.5 3.25-14.95.8-4.28 1.51-8.72 2.2-13.02a251 251 0 015.05-25.6c4.42-15.7 11.02-28.72 17.37-41.31a378.67 378.67 0 008.8-17.97c1.2-2.7 2.37-5.48 3.5-8.18 2.8-6.62 5.48-12.9 8.54-17.94 3.96-6.46 10.12-11.58 16.65-17.01 5.66-4.72 11.51-9.59 15.93-15.52 3.58-4.81 5.29-11.68 7.1-18.93 2.19-8.89 4.5-18.1 10.53-23.82 10.65-10.02 39.68-12.4 49.23-13.2 18.47-1.48 30.36 6.24 33.12 21.45 2.64 14.25-5.48 21.3-12.66 27.56-.67.54-1.31 1.11-1.96 1.68-1.77 1.57-3.5 3.1-5.28 4.64-7.14 6.15-13.82 11.95-18.84 18.57-9.78 12.91-13.48 30.2-17.4 48.51-3.97 18.43-8.08 37.47-18.46 55.83-1.78 3.12-3.7 6.3-5.74 9.7-7.82 12.84-16.65 27.41-18.2 42.46-.95 8.94.56 18.65 2 28zM481.67 240.03l-.08-.13c-3.13-3.85-9.78-5.7-20.38-5.7-9.44 0-20.17 1.5-28.02 2.6-1.96.3-3.77.54-5.36.74-1.77.23-3.55.44-5.32.66-14.12 1.74-27.45 3.4-33.6 7.76-13.03 9.12-14.43 27.97-13.37 42.19v.15c.15.45.38.94.53 1.41 1.13 3.39 2.41 7.24 5.7 9.76l.11.08c3.48 1.13 8.12 1.68 14.31 1.68 8.95 0 19.63-1.17 29.94-2.32 3.58-.4 7.1-.78 10.46-1.12 16.72-1.64 27.48-4.4 32.96-8.41 10.8-7.97 14.87-24.54 12.16-49.21zm-12.72 48.55c-5.29 3.9-15.94 6.59-32.44 8.21-3.36.34-6.87.72-10.5 1.12-10.27 1.14-20.91 2.32-29.82 2.32-6.04 0-10.54-.53-13.93-1.63-2.95-2.32-4.15-5.81-5.25-9.19l-.45-1.4c-1.1-13.95.3-32.4 12.87-41.24 6.04-4.21 19.22-5.85 33.19-7.57 1.8-.23 3.54-.43 5.36-.68 1.58-.2 3.36-.43 5.36-.72 7.81-1.1 18.5-2.6 27.86-2.6 10 0 16.58 1.76 19.52 5.23 2.68 24.22-1.28 40.41-11.77 48.15z" fill="#cfd4dd"/><path d="M464.56 246.92c-3.66-2.54-9.2-3.83-16.53-3.83-17.63 0-39.38 7.17-46.1 11.91-7.25 5.17-10.3 11.46-10.27 21.07v.11c1.7 6.89 7.44 11.12 17.07 12.52a78.3 78.3 0 0011.29.7c14.68 0 34.47-2.82 40.47-7.06 5.2-3.68 10.6-12.93 10.6-22.09-.03-5.76-2.29-10.36-6.52-13.33zm-4.64 34.58c-5.24 3.67-23.9 6.9-39.9 6.9a80.05 80.05 0 01-11.18-.69c-9.13-1.34-14.57-5.28-16.2-11.72-.03-9.2 2.95-15.21 9.9-20.16 6.68-4.74 28.65-11.74 45.5-11.74 7.13 0 12.49 1.23 15.97 3.64 5.01 3.5 6.03 8.74 6.07 12.52 0 8.72-5.29 17.84-10.16 21.25zM560.46 249.57c-8.68.64-17.7 5.22-22.99 11.66a20.66 20.66 0 00-4.9 15.93c1.5 7.99 10.75 13.57 22.42 13.57 8.53 0 16.3-3.06 21.25-8.38 5.48-5.81 7.1-13.3 4.38-20.02-2.98-7.44-10.45-12.22-20.16-12.76zm15.06 32.1c-4.79 5.12-12.3 8.06-20.53 8.06-11.18 0-20.01-5.25-21.45-12.74a19.82 19.82 0 014.69-15.12c5.13-6.25 13.92-10.68 22.23-11.3 9.21.52 16.43 5.05 19.25 12.11 2.57 6.37.99 13.46-4.19 19z" fill="#cfd4dd"/><path d="M442.78 255.6c-7.4-.39-13.37 4.25-17.63 8.31l-.11.11-.04.14c-.5 2.04-.83 4.6 1.06 6.26a21.33 21.33 0 0012.19 4.29h.57c8.53-.3 14.5-6.3 14.53-11.52.08-4.36-3.89-7.2-10.57-7.59zm-4 18.09a4.93 4.93 0 01-.53.02 20.16 20.16 0 01-11.55-4.08c-1.4-1.23-1.17-3.34-.75-5.1 5.85-5.49 10.8-7.94 15.85-7.94.3 0 .6 0 .91.02 6.15.36 9.66 2.73 9.63 6.58-.05 4.76-5.86 10.24-13.56 10.5zM559.1 268.99a4.56 4.56 0 00-3.55-1.48 5.08 5.08 0 00-3.1 1c-1.43 1.16-1.1 3.17-.68 4.61l.08.2.26.1a2.63 2.63 0 001.21.27 1.91 1.91 0 00.19.13 3.11 3.11 0 002.19.83c.19 0 .45-.02.68-.04l.15-.06c2.07-1.15 3.81-3.32 2.64-5.49zm-2.94 4.64a2.34 2.34 0 01-2.04-.62 2.87 2.87 0 01-.34-.23l-.12-.1h-.15a3.08 3.08 0 01-.83-.09c-.3-1.13-.49-2.56.42-3.28a3.8 3.8 0 012.45-.8 3.64 3.64 0 012.76 1.1c.87 1.7-.94 3.34-2.15 4.02zM358.78 320.27a14.25 14.25 0 00-3.44-.4c-7.93 0-20.61 5.1-26.69 7.53-15.06 6.06-30.88 13.25-43.94 28.73-17.26 20.37-23.18 63.5-20.05 93.72 1.7 16.06 8.27 28.6 20.08 38.31 10.88 8.95 14.54 18.75 10.8 29.15-2.6 7.38-9.47 13.63-16.83 20.21-3.7 3.42-7.63 6.93-11.1 10.78l-3.74 4.08c-14.09 15.32-31.6 34.44-34.28 49.47-1.78 9.66.9 18.48 3.47 26.97a88.42 88.42 0 013.36 13.42c1.89 13.48-4.57 18.78-12 24.92-3.32 2.75-6.84 5.6-9.67 9.36-4.94 6.53-5.73 12.96-6.26 20.18 1.24 16.44 26.88 38.27 44.96 38.3a19.82 19.82 0 007.06-1.23c7.14-2.66 11.21-8.7 15.55-15.1 3.74-5.5 7.63-11.15 13.67-15.1 6.72-4.32 16.88-7.23 25.37-7.23 4.68 0 11.1.9 14.95 5.23 2.69 3.04 3.7 7.34 3.1 12.8-1.13 9.42-6.8 19.46-11.36 26.23a69.57 69.57 0 01-5.81 7.21c-3.37 3.84-6.84 7.78-8.72 12.37a17.73 17.73 0 00-.2 14.08c5.03 11.93 22.7 19.04 28.5 21.38 2.23.85 4.39 1.72 6.53 2.59 9.14 3.62 17.83 7.04 26.7 11.48a233.66 233.66 0 0122.16 13.25c9.14 5.88 18.54 12 28.16 15.95a27.16 27.16 0 0010.24 2.15c13.44 0 21.55-11.52 25.22-18.39 1.28-2.4 2.86-7.41 4.94-13.76 1.4-4.3 2.99-9.17 4.72-14.08 1.62-4.5 3.44-8.5 5.13-12.34 3.82-8.53 7.4-16.6 8.61-28.79 1.63-15.5-9.81-25.95-13.36-28.8-7.14-5.7-15.93-10.1-23.71-13.95-6.65-3.28-12.91-6.37-17.18-9.83-6.23-4.96-12.27-11.64-10.08-23.63.87-4.55 2.6-7.95 4.46-11.55 3.24-6.27 6.57-12.78 5.62-26.01-.94-12.12-3.43-35.3-10.2-54.29-4.3-12.19-10.71-23.1-17.51-34.67-1.81-3.15-3.74-6.42-5.62-9.7-5.63-9.95-9.75-20.74-13.75-31.16-4.11-10.82-8-21.03-13.44-30.24-2.27-3.9-4.64-7.23-6.91-10.46-6.27-8.76-11.66-16.36-13.1-31.8a81.63 81.63 0 010-14.93c1.36-15.16 7.1-29.47 12.65-43.28 5.28-13.21 10.3-25.67 11.47-38.3 1.06-12-1.81-19-8.53-20.83zm7.51 20.75c-1.13 12.47-6.12 24.88-11.36 38.01-5.63 13.87-11.4 28.24-12.76 43.55a92.16 92.16 0 000 15.11c1.5 15.73 7.2 23.77 13.28 32.3 2.27 3.2 4.65 6.51 6.88 10.38 5.36 9.15 9.25 19.3 13.36 30.09 4.04 10.47 8.16 21.3 13.78 31.27 1.9 3.3 3.82 6.57 5.66 9.74 6.76 11.52 13.15 22.4 17.49 34.5 6.68 18.9 9.17 41.96 10.04 54.02.98 12.95-2.27 19.33-5.44 25.49-1.89 3.66-3.7 7.15-4.53 11.83-2.34 12.5 3.97 19.44 10.38 24.61 4.38 3.48 10.69 6.6 17.33 9.93 7.74 3.83 16.5 8.17 23.56 13.82 3.44 2.77 14.57 12.93 13.07 27.93-1.25 12.03-4.8 20.03-8.58 28.47a172.23 172.23 0 00-5.17 12.42c-1.77 4.92-3.32 9.8-4.72 14.1-2.04 6.3-3.66 11.28-4.9 13.6-3.52 6.67-11.4 17.86-24.32 17.86a26.1 26.1 0 01-9.85-2.1c-9.52-3.9-18.92-9.98-27.98-15.85a235.74 235.74 0 00-22.27-13.3c-8.91-4.44-17.6-7.87-26.77-11.52-2.19-.85-4.34-1.7-6.5-2.58-5.74-2.3-23.1-9.27-27.98-20.86a16.78 16.78 0 01.15-13.29c1.86-4.43 5.25-8.32 8.61-12.08a74.85 74.85 0 005.85-7.3c4.65-6.87 10.35-17.08 11.52-26.67.68-5.75-.45-10.32-3.32-13.59-3.25-3.64-8.65-5.57-15.7-5.57-8.65 0-19.08 2.97-25.9 7.38-6.24 4.06-10.16 9.82-13.98 15.39-4.23 6.26-8.27 12.17-15.1 14.74a18.72 18.72 0 01-6.68 1.13c-17.67 0-42.7-21.3-43.94-37.3.6-8.25 1.77-13.81 6.04-19.54a57.54 57.54 0 019.51-9.2c7.36-6.07 14.3-11.8 12.34-25.85a89.27 89.27 0 00-3.35-13.55c-2.57-8.4-5.21-17.08-3.51-26.52 2.67-14.74 20.08-33.7 34.05-48.96 1.32-1.4 2.57-2.75 3.77-4.08 3.44-3.81 7.33-7.3 11.06-10.7 7.4-6.7 14.35-13 17.1-20.63 3.85-10.83.12-21-11.13-30.27-11.63-9.53-18.09-21.84-19.7-37.64-3.14-30.01 2.75-72.8 19.78-92.94 12.87-15.3 28.58-22.46 43.53-28.44 6.04-2.42 18.61-7.48 26.35-7.48a12.5 12.5 0 013.14.36c6.23 1.67 8.87 8.34 7.81 19.78zM568.27 352.81v-.2c1.1-9.82-2.52-17.4-11.13-23.2-8.35-5.59-23.52-9.52-36.92-9.52-8.46 0-14.73 1.6-17.64 4.5-3.88 3.86-4.34 10.08-4.23 15.06v.1c4.04 18.32 21.6 24.85 36.74 24.85 12.69 0 25.03-4.29 33.03-11.48zm-.94-.5c-7.85 6.94-19.9 11.1-32.24 11.1-14.72 0-31.83-6.3-35.75-24.02-.08-4.79.37-10.71 3.96-14.28 2.72-2.7 8.72-4.21 16.92-4.21 13.25 0 28.2 3.85 36.35 9.36 8.23 5.53 11.7 12.74 10.76 22.04zM197.3 417.76c15.75-21.2 22.92-30.86 26.09-62.53.83-8.29-3.06-19.44-5.44-22.75-4.11-5.72-9.96-8.62-17.4-8.62-6.76 0-14.88 2.53-23.56 7.28l-.07.06c-15.56 13.74-28.58 32.8-36.74 53.64-4.72 12.12-7.59 25.43-6.3 50.91.57 12.76.42 25.88.27 38.56-.08 7.3-.16 14.86-.12 22.1l.04.11c1.2 5.3 4.42 14.63 12.35 17.37a17 17 0 005.51.83c9.06 0 21.22-5.59 23.86-13.08 2.68-7.42 2.38-15.75 2.08-24.56-.23-5.96-.46-12.13.34-17.97 1.73-13.02 9.43-28.2 16.27-37.48zm-20.12 41.23c-.8 5.92-.56 12.13-.34 18.13.34 8.72.6 16.95-1.96 24.18-2.53 7.1-14.23 12.42-22.96 12.42a15.44 15.44 0 01-5.17-.79c-7.44-2.57-10.53-11.46-11.74-16.57-.04-7.23.04-14.75.11-22.05.2-12.68.38-25.82-.26-38.62-1.29-25.31 1.58-38.48 6.26-50.47 8.08-20.7 21.03-39.6 36.44-53.23 8.45-4.64 16.38-7.11 22.99-7.11 7.06 0 12.65 2.75 16.61 8.19 1.97 2.72 6.12 13.5 5.25 22.06-3.13 31.4-9.78 40.36-25.9 62.03l-2.83 3.87c-6.95 9.38-14.76 24.76-16.5 37.96z" fill="#cfd4dd"/><path d="M523 412.04c3.1-9.98-.97-15.72-8.07-21.21a100.44 100.44 0 00-13.44-8.38c-5.93-3.23-11.48-6.29-16.31-11.22-4.2-4.3-7.1-10.38-10.23-16.8-2.53-5.15-5.1-10.47-8.42-14.91-6.46-8.6-18.28-13.55-32.36-13.55-17.21 0-33.03 7.26-40.32 18.53a104.5 104.5 0 00-7.14 14.18c-5.28 12.48-12.04 30.88-15.25 43.88-1.05 4.23-1.5 15.35-.94 22.44l.04.12c5.77 17.57 20.46 37.35 37.38 50.41 13.28 10.33 30.43 12.35 46.96 14.31 5.32.64 10.8 1.29 16 2.19h.08l1.7-.17c8.8-.96 19.63-2.15 26.1-11.23 3.61-5.1 5.01-13.44 6.52-22.27 1.21-7.12 2.5-14.48 4.95-21.3a73.53 73.53 0 016.94-13.5c2.35-3.84 4.57-7.46 5.82-11.52zm-13.73 24.7c-2.5 6.88-3.74 14.28-4.95 21.45-1.5 8.72-2.9 16.95-6.38 21.86-6.15 8.7-16.35 9.83-25.37 10.82l-1.55.17c-5.21-.91-10.72-1.55-16-2.18-16.43-1.96-33.42-3.98-46.52-14.1-16.69-12.95-31.22-32.52-37-49.89-.57-7.02-.11-17.9.9-22.06 3.2-12.97 10-31.31 15.29-43.73a95.77 95.77 0 016.99-14.03C401.8 334.1 417.29 327 434.17 327c13.78 0 25.25 4.8 31.56 13.13 3.25 4.35 5.81 9.63 8.27 14.75 3.17 6.51 6.15 12.66 10.46 17.06 4.94 5.04 10.57 8.14 16.57 11.42a95.28 95.28 0 0113.25 8.27c8.2 6.4 10.35 11.83 7.78 20.12-1.2 3.92-3.4 7.5-5.74 11.28a72.62 72.62 0 00-7.05 13.71z" fill="#cfd4dd"/><path d="M491.45 387.3a73.17 73.17 0 01-10.76-9.53c-4.57-5.27-7.48-10.95-10.5-16.95-2.76-5.37-5.55-10.91-9.7-16.3-6.49-8.32-16.46-12.92-28.05-12.92-11.52 0-23.49 4.68-30.55 11.93-6 6.2-10.8 17.8-12.12 21.2-7.85 20.2-12.23 34.9-13.29 44.96a60.74 60.74 0 00.08 9.36c8.57 40.57 51.91 62.7 88.42 62.95h.8c16.19 0 26.95-10.04 30.27-28.28.53-3.05.9-6.2 1.25-9.26.64-5.5 1.28-10.7 2.87-15.44.49-1.45 1.24-3.14 2-4.91 3.1-7.08 7.28-16.78 1.88-24.76-3.2-4.75-7.96-8.47-12.6-12.05zm9.81 36.41c-.8 1.8-1.5 3.49-2.04 4.96-1.66 4.85-2.3 10.36-2.94 15.69-.3 3.02-.68 6.15-1.25 9.17-2.26 12.52-9.2 27.46-29.25 27.46l-.8-.01c-36.06-.25-78.98-22.1-87.44-62.09a67.58 67.58 0 01-.07-9.11c1.1-9.97 5.4-24.58 13.21-44.68 1.32-3.36 6.08-14.8 11.93-20.85 6.91-7.08 18.61-11.63 29.83-11.63 11.25 0 20.95 4.45 27.25 12.53 4.12 5.29 6.88 10.8 9.6 16.12 3.05 6.08 5.96 11.78 10.6 17.16a74.97 74.97 0 0010.91 9.66c4.8 3.72 9.33 7.21 12.43 11.8 5.13 7.53 1.2 16.57-1.97 23.82z" fill="#cfd4dd"/><path d="M349.83 334.43l-.11-.08h-.12a90.83 90.83 0 01-5.2-.24 71.7 71.7 0 00-5.22-.25 22.93 22.93 0 00-3.92.29c-14.88 2.37-34.02 12.25-44.52 22.99-16.53 16.93-19.93 43.37-20.99 64.53-1.1 20.97 2.6 36.54 10.92 46.3 3.54 4.13 8.68 7.06 13.58 9.89 5.33 3.04 10.35 5.93 13.52 10.12 10.95 14.53.19 37.08-10.5 47.73a648.4 648.4 0 01-10.38 8.83c-18.5 15.56-39.49 33.18-46.06 52.65a37.68 37.68 0 00-1.24 17.5c.94 6.11 3.89 11.7 6.95 17.6 3.43 6.48 6.9 13.18 8 21.03.75 5.57.1 10.42-1.9 14.46-2.26 4.46-6.37 7.84-10.75 11.42-6.76 5.51-13.78 11.25-13.3 21.5l.05.19c1.92 4.47 7.7 14.93 19.55 14.93a20.82 20.82 0 004.27-.45c4.9-1 8.5-4.48 12.68-8.5 1.33-1.26 2.68-2.58 4.16-3.89 11.89-10.57 28.62-17.55 46.96-19.66a60.52 60.52 0 016.99-.36c5.74 0 11.25.62 13.97 1.6.22.05 20.95 7.62 16.68 23.95-.6 2.28-2.52 5.57-3.62 7.53-2.64 4.53-6.2 9.44-9.9 14.61-7.47 10.4-15.2 21.18-17.06 30.62-2.71 13.57 7.1 21.64 13.22 25.25 5.17 3.04 11.82 5.92 18.91 9.02 5.51 2.4 11.25 4.87 16.95 7.72 6.31 3.15 12.46 6.89 18.43 10.52a185.22 185.22 0 0016.8 9.58l2.45 1.25c3.97 2.04 8 4.13 13.78 4.13a28.45 28.45 0 007.25-.98c14.38-3.72 20.09-18.55 25.56-32.92l1.81-4.68c4-10.42 7.48-19.4 8.35-26.58 2.83-22.2-14.35-31.69-26.92-38.63l-.76-.44c-5.02-2.8-11.29-5.73-17.33-8.58-6.72-3.2-13.74-6.5-18.87-9.5l-.27-.17c-7.06-4.11-13.14-7.7-11.14-20.74 1.1-7.53 5.21-14.99 9.56-22.9 6.04-11.08 12.34-22.56 11.51-35.82a59.64 59.64 0 01-1.06-13.86c-1.77-17.93-9.73-29.1-18.23-40.98a197.41 197.41 0 01-9.67-14.42c-6.26-10.51-9.93-21.74-13.44-32.6-4.87-15.02-9.93-30.54-21.9-44.07a81.75 81.75 0 00-3.73-3.87c-3.93-4.02-7.3-7.45-8.23-12.87-1.97-11.88-1.55-20.63-.23-36.45 1.2-14.48 5.66-27.07 9.78-37.73.83-2.2 1.73-4.42 2.6-6.65 3.67-9.1 7.44-18.51 8.65-28.23 1.33-10.62-.98-17.17-7.32-20.64zm6.34 20.51c-1.2 9.63-4.98 18.96-8.57 28-.9 2.21-1.81 4.44-2.68 6.66-4.11 10.73-8.6 23.4-9.77 38.02-1.33 15.9-1.78 24.7.26 36.71.9 5.68 4.41 9.25 8.45 13.38 1.21 1.23 2.46 2.48 3.7 3.87 11.86 13.35 16.84 28.77 21.71 43.68 3.52 10.93 7.21 22.22 13.48 32.82 3.17 5.25 6.53 9.93 9.78 14.5 8.38 11.73 16.31 22.8 18.01 40.41a60.25 60.25 0 001.06 13.93c.83 12.95-5.37 24.28-11.37 35.22-4.41 8.01-8.53 15.54-9.7 23.24-2.08 13.7 4.57 17.63 11.63 21.76l.26.15c5.21 3.06 12.23 6.36 19 9.56 6 2.84 12.26 5.8 17.28 8.56l.76.44c12.27 6.81 29.1 16.12 26.39 37.64-.87 7.02-4.34 15.96-8.34 26.33l-1.82 4.68c-5.36 14.12-10.95 28.72-24.84 32.31a27.84 27.84 0 01-6.98.94c-5.55 0-9.48-2.03-13.3-4-.86-.45-1.65-.86-2.48-1.26-5.33-2.55-10.88-5.95-16.77-9.53-5.96-3.66-12.12-7.42-18.46-10.59a344.35 344.35 0 00-17.03-7.74c-7.06-3.08-13.7-5.94-18.8-8.98-5.85-3.46-15.29-11.2-12.72-24.18 1.81-9.23 9.51-19.9 16.91-30.22 3.7-5.21 7.25-10.14 9.9-14.7 1.5-2.57 3.2-5.54 3.77-7.76 4.45-17.22-17.1-25.1-17.33-25.18-2.83-1-8.46-1.66-14.31-1.66a63.33 63.33 0 00-7.1.37c-18.57 2.16-35.41 9.22-47.53 19.92a140.42 140.42 0 00-4.19 3.92c-4.08 3.91-7.55 7.29-12.16 8.23a20.62 20.62 0 01-4.08.44c-11.17 0-16.72-9.91-18.57-14.25-.42-9.69 6.34-15.26 12.9-20.6 4.28-3.5 8.7-7.1 11-11.74 2.11-4.22 2.8-9.26 2-15.06-1.1-8-4.65-14.8-8.08-21.35-3.06-5.83-5.93-11.34-6.87-17.29-.42-2.77-1.21-9.98 1.2-17.02 6.5-19.2 27.37-36.73 45.76-52.19 3.7-3.1 7.18-6 10.42-8.87 10.99-10.91 21.9-34.05 10.61-49.1-3.28-4.34-8.6-7.4-13.78-10.36-4.87-2.8-9.93-5.68-13.33-9.66-8.19-9.56-11.78-24.92-10.72-45.63 1.1-20.97 4.42-47.18 20.73-63.87 10.23-10.42 29.49-20.38 43.94-22.7a23.02 23.02 0 013.78-.27c1.66 0 3.36.11 5.14.25 1.62.1 3.36.22 5.1.24 5.88 3.28 8.04 9.49 6.75 19.58zM216.3 357.36c-.27-2.42-1.67-10.68-6.88-15.34a20.11 20.11 0 00-13.93-5.17c-8.5 0-18.46 4.47-26.01 11.73-20.12 24.56-29.1 47.57-27.41 70.4.9 9.25 3.43 17.58 5.89 25.62 2.04 6.66 3.96 12.94 4.94 19.53q.23 1.7.35 3.29c.33 3.6.6 7.02 3.58 9.55l.38.34.34-.44c2.6-3.41 3.55-7.55 4.49-11.55a41.88 41.88 0 012.04-7.12c2.08-5.18 4.98-9.9 8.04-14.9 2-3.27 4.08-6.65 5.93-10.18 2.49-3.38 5.36-7.02 8.45-10.87 14.58-18.4 32.78-41.28 29.8-64.9zm-30.59 64.27c-3.1 3.85-6 7.53-8.5 10.97a192.9 192.9 0 01-5.92 10.17c-3.1 5.06-6.04 9.8-8.19 15.06a48.43 48.43 0 00-2.04 7.25c-.87 3.74-1.78 7.57-4 10.74-2.27-2.23-2.53-5.13-2.8-8.47a53.5 53.5 0 00-.37-3.35 130.34 130.34 0 00-4.99-19.68c-2.38-8.03-4.91-16.27-5.82-25.43-1.66-22.55 7.25-45.33 27.11-69.62 7.37-7.06 17.03-11.42 25.3-11.42a19.21 19.21 0 0113.25 4.9c4.95 4.45 6.27 12.4 6.57 14.72 2.87 23.2-15.1 45.91-29.6 64.16zM478.23 388.49c-4.64-6.29-8.34-13.33-11.89-20.12-3.29-6.25-6.38-12.16-9.89-16.77a32.83 32.83 0 00-26.47-13.15 34.94 34.94 0 00-28.05 14.08c-8.42 11.12-16.68 37.75-18.42 54.13a46.46 46.46 0 00.56 12.57c.23 1.32.42 2.55.53 3.85 6.65 25.67 37.94 43.93 64.37 46.76a73.14 73.14 0 007.6.41c14.11 0 22.15-5.06 25.17-15.94a34.82 34.82 0 00.83-7.67c.12-2.17.23-4.4.53-6.63a109.27 109.27 0 013.63-15.3 81.09 81.09 0 002.26-9.25c1.7-11.8-2.23-16.54-7.2-22.5-1.18-1.4-2.35-2.85-3.56-4.47zm9.78 26.82a74.39 74.39 0 01-2.3 9.11 116.32 116.32 0 00-3.58 15.44 60.09 60.09 0 00-.53 6.74 34.68 34.68 0 01-.8 7.42c-3.4 12.16-13.36 16.76-31.71 14.82-26.09-2.8-57-20.77-63.46-45.92-.16-1.25-.34-2.5-.53-3.84a43.3 43.3 0 01-.57-12.3c1.74-16.25 9.9-42.66 18.24-53.63a33.87 33.87 0 0127.22-13.7 31.91 31.91 0 0125.67 12.76c3.47 4.55 6.5 10.42 9.78 16.63 3.58 6.82 7.28 13.91 12 20.24 1.17 1.66 2.42 3.13 3.59 4.52 4.8 5.8 8.57 10.36 6.98 21.7z" fill="#cfd4dd"/><path d="M336.01 345.25a23.2 23.2 0 00-4.04-.33c-11.1 0-24.69 6.6-32.65 12.73-23.6 18.2-23.49 54.73-23.41 74.32-.68 8.42 3.24 18.39 10.3 26.05 5.75 6.23 12.7 9.82 19.07 9.82a17.62 17.62 0 0010.3-3.38c10-7.1 11.7-20.88 13.45-35.47a181.37 181.37 0 013.1-19.12 164.19 164.19 0 017.58-22.25 132.94 132.94 0 005.18-14.82c1.8-7 3.17-16.55-.65-22.44a11.52 11.52 0 00-8.23-5.12zm7.93 27.29a142.15 142.15 0 01-5.21 14.72 174.9 174.9 0 00-7.55 22.37 160.28 160.28 0 00-3.1 19.23c-1.78 14.38-3.4 27.93-13.1 34.79a16.7 16.7 0 01-9.7 3.17c-6.08 0-12.76-3.46-18.35-9.48-6.84-7.45-10.69-17.14-10-25.33-.08-19.46-.23-55.68 22.99-73.55 7.85-6.06 21.18-12.54 32.05-12.54a21.48 21.48 0 013.89.33 10.62 10.62 0 017.55 4.66c2.87 4.41 3.02 11.89.53 21.63zM454.79 362.12c-4.99-8.25-14.46-17.08-26.2-17.08a27.3 27.3 0 00-2.76.15c-27.37 3.32-33.79 44.45-35.18 68.76 2.49 22.9 25.48 42.52 50.2 42.86h.05c11.93-.3 19.9-5.19 23.75-14.51 3.13-7.7 7.28-21 8.26-27.86.57-4.17.04-12.67-1.02-15.93-2.94-9.29-10.65-25.61-17.1-36.4zm17.1 52.17c-.91 6.57-5.1 19.99-8.16 27.63-3.7 8.93-11.4 13.6-22.88 13.9-24.23-.35-46.81-19.58-49.19-41.9 1.36-23.9 7.62-64.5 34.28-67.71a20.18 20.18 0 012.64-.17c11.33 0 20.5 8.58 25.34 16.63 6.45 10.68 14.04 26.9 17.03 36.16.98 3.1 1.5 11.48.94 15.46zM199.87 352.57a14.96 14.96 0 00-8.42-2.38c-6.42 0-13.74 3.34-19.44 8.96C160 370.82 151.2 394.1 153.17 409c1.36 4.94 3.25 11.72 9.29 14.33l.18.04h.65c9.44 0 17.93-9.61 25.44-18.13l.12-.17c7.1-8 13.21-15.27 16.15-23.18 3.78-10.05 3.82-23.53-5.13-29.32zm4.19 28.97c-2.9 7.76-8.72 14.66-15.97 22.87l-.11.18c-7.36 8.32-15.7 17.78-24.7 17.78h-.45c-5.58-2.46-7.4-8.9-8.72-13.58-1.85-14.58 6.8-37.46 18.58-48.92 5.55-5.43 12.6-8.68 18.76-8.68a14.04 14.04 0 017.9 2.23c8.41 5.47 8.34 18.42 4.71 28.12z" fill="#cfd4dd"/><path d="M428.06 354.23a19.66 19.66 0 00-8.46 2.07c-18.46 8.93-19.52 43.26-19.9 54.63 1.78 18.02 17.22 30.14 30.59 30.14a20.58 20.58 0 0012.08-3.8c10.5-7.45 17.7-27.42 15.48-42.7-2.08-14.07-12.95-40.34-29.8-40.34zm13.7 82.23a19.5 19.5 0 01-11.48 3.61c-12.91-.02-27.86-11.76-29.56-29.18.34-11.14 1.43-45.01 19.33-53.68a18.59 18.59 0 018-1.98c16.2 0 26.73 25.7 28.77 39.5 2.23 14.94-4.79 34.45-15.06 41.73zM321.78 359.23c-8.76 0-21.1 6.93-27.56 15.48-9.85 17.55-9.93 38.28-9.25 56.4 2.34 11.47 8.27 18.29 15.93 18.29 7.18 0 13.78-5.97 16.8-15.2.9-2.7 1.85-6.85 2.95-11.63 1.17-5.12 2.49-10.93 4.15-16.55.98-3.57 2.19-6.91 3.32-10.14 2.08-5.85 4-11.38 4.87-17.67 1.06-7.1.15-12.32-2.64-15.51-2-2.3-4.87-3.47-8.57-3.47zm10.23 18.86c-.83 6.19-2.8 11.66-4.87 17.45-1.1 3.27-2.3 6.61-3.36 10.2-1.58 5.66-2.9 11.47-4.11 16.6-1.1 4.76-2 8.88-2.88 11.54-2.9 8.7-9.24 14.51-15.89 14.51-7.17 0-12.72-6.53-14.91-17.42-.68-17.89-.6-38.45 9.06-55.7 6.15-8.15 18.35-15.04 26.73-15.04 3.4 0 6 1.04 7.81 3.13 2.57 2.97 3.4 7.91 2.42 14.73zM187.26 364.3l-.11-.03-.12.02c-11.02 2.23-17.17 12.89-19.06 21.27-1.47 3.72-2.12 10.55 2.04 14.06l.11.08.08.02a11.95 11.95 0 002.94.35c10.2 0 20.88-12.08 22.5-21.96 1.06-6.78-1.89-11.67-8.38-13.8zm7.36 13.64c-1.5 9.5-11.74 21.14-21.48 21.14a10.61 10.61 0 01-2.57-.3c-3.2-2.86-3.32-8.74-1.66-12.95 1.85-8.1 7.74-18.33 18.2-20.52 5.85 1.98 8.53 6.47 7.51 12.63z" fill="#cfd4dd"/><path d="M432.62 366.99c-5.92-2.48-11.13-1.15-15.2 3.81-7.33 8.87-9.4 27.94-7.67 37.14 1.47 8.21 8.34 17.09 16.95 17.09a14.31 14.31 0 006.15-1.47c10.27-5.51 13.33-20.07 12.8-30.85-.64-12.63-5.74-22.72-13.03-25.72zm-.26 55.66a12.66 12.66 0 01-5.66 1.38c-8.08 0-14.57-8.44-15.93-16.27-1.78-9.02.26-27.69 7.4-36.34 2.56-3.07 5.58-4.64 8.9-4.64a13.86 13.86 0 015.22 1.13c6.87 2.87 11.78 12.61 12.38 24.86.5 10.5-2.42 24.6-12.3 29.88zM315.7 379.75l-.3-.1c-.41-.15-.87-.38-1.32-.56a6.76 6.76 0 00-2.87-.85 3.87 3.87 0 00-1.2.18l-.08.04c-12.95 7.36-12.58 23.92-10.84 37.5v.16l.11.11c.23.28.42.66.68 1.05.64 1.08 1.44 2.42 2.99 2.42a2.93 2.93 0 001.02-.18l.18-.06.08-.17c.6-1.08 1.17-2.16 1.77-3.25 5.97-10.99 12.73-23.42 9.82-36.01zm-10.65 35.8c-.56 1.04-1.13 2.06-1.66 3.06a1.67 1.67 0 01-.52.07c-.99 0-1.55-.92-2.12-1.9a10.9 10.9 0 00-.71-1.06c-1.7-13.25-1.97-29.3 10.34-36.33a4.58 4.58 0 013.32.62 8.71 8.71 0 001.17.49c2.64 12.16-3.96 24.31-9.82 35.05zM322.42 517.86a84 84 0 01-7.63 13.42c-6.64 8.8-16 16.27-25.14 23.52-4.68 3.73-9.55 7.6-13.97 11.62-7.96 7.2-21.7 21.18-24.8 33.83a29.4 29.4 0 00-.27 9.45 37.71 37.71 0 01.15 5.4v.13l.04.12c3.14 7.3 6.76 15.2 10.35 22.84 3.77 8.25 7.78 16.74 10.95 24.38 2.22 5.3 6.49 12.5 17.78 13.6a35.04 35.04 0 003.5.16c6.66 0 13.34-1.66 20.4-3.42 6.53-1.62 13.29-3.3 20.42-3.73 4.5-.29 8.91.58 13.63 1.5 2.76.54 5.7 1.1 8.57 1.4 2.11.2 3.96.33 5.63.33 9.43 0 12.68-3.32 18.5-10.21 23.78-28.11 25.78-54.57 6-78.64a135.05 135.05 0 00-5.33-5.98 78.4 78.4 0 01-7.66-8.99c-6.5-9.5-8.88-20.08-11.21-30.3-2.5-10.8-4.8-21.03-11.56-29.72-2.9-3.77-8.04-7.57-12.99-7.57a9 9 0 00-6.3 2.6c-3.81 3.61-6.38 8.8-9.06 14.25zm15.37-15.84c4.6 0 9.44 3.59 12.19 7.17 6.6 8.52 8.91 18.61 11.33 29.3 2.38 10.34 4.83 21 11.44 30.68a74.89 74.89 0 007.74 9.12c1.77 1.93 3.62 3.91 5.28 5.9 19.4 23.66 17.4 49.67-6 77.34-6.68 7.9-9.78 10.95-23.26 9.55-2.86-.3-5.73-.87-8.53-1.4-4.57-.88-9.25-1.8-13.82-1.5-7.24.45-14.04 2.13-20.61 3.75-7.02 1.76-13.63 3.4-20.16 3.4a32.99 32.99 0 01-3.44-.17c-10.6-1.04-14.6-7.5-16.91-12.98-3.21-7.65-7.17-16.18-10.99-24.4-3.51-7.61-7.17-15.46-10.3-22.71a33.28 33.28 0 00-.16-5.42c-.22-3.06-.49-6.23.23-9.17 3.06-12.37 16.65-26.18 24.5-33.3 4.42-3.98 9.29-7.85 13.97-11.6 9.14-7.27 18.61-14.8 25.3-23.7 3.25-4.3 5.51-9 7.78-13.57 2.64-5.4 5.1-10.5 8.8-13.98a7.8 7.8 0 015.62-2.31z" fill="#cfd4dd"/><path d="M266.58 598.8c-5.89 11.28 2.23 28.27 3.21 30.17 7.1 14.23 16.01 29.13 28.66 31.84a28.2 28.2 0 006.15.61c11.44 0 26.39-5.55 37.15-13.84 3.1-2.38 6.12-6.17 9.33-10.17 1.54-1.94 3.17-3.97 4.83-5.93a100.06 100.06 0 017.32-7.4c4.53-4.24 8.46-7.92 10.05-13.36v-.17c-.68-9.83-5.7-18.21-10.54-26.31a111.02 111.02 0 01-7.25-13.54 105.23 105.23 0 01-3.74-10.94c-2.26-7.35-4.52-14.95-9.85-20.97l-.15-.1a13.12 13.12 0 00-6.23-1.5 15.31 15.31 0 00-3.81.5c-5.44 1.42-20.43 13.27-44.51 35.24-11 10.07-17.37 18.05-20.62 25.88zm65.4-60.12a14.11 14.11 0 013.54-.48 12.63 12.63 0 015.7 1.33c5.13 5.84 7.36 13.3 9.55 20.51a106.69 106.69 0 003.78 11.06 109.8 109.8 0 007.33 13.63c4.79 8 9.7 16.25 10.38 25.8-1.51 5.13-5.33 8.7-9.7 12.81a96.77 96.77 0 00-7.4 7.48c-1.74 1.98-3.32 4-4.87 5.96-3.18 3.95-6.16 7.7-9.14 10-10.57 8.18-25.3 13.63-36.55 13.63a28.23 28.23 0 01-5.96-.58c-12.2-2.65-20.96-17.3-27.94-31.3-.94-1.87-8.87-18.45-3.2-29.3 3.16-7.72 9.47-15.6 20.42-25.56 29.82-27.2 40.4-34.05 44.05-35z" fill="#cfd4dd"/><path d="M278.96 616.29c4.57 15.42 11.75 25.31 21.41 29.4l.12.02a34.6 34.6 0 005.47.48c18.95 0 25.33-17.18 30.4-31l.82-2.04c.57-1.58 1.25-3.1 1.82-4.58a38.2 38.2 0 003.05-8.97c1.96-12.42-3.54-33.03-14.08-35a12.14 12.14 0 00-2.08-.2c-8.11 0-17.25 8.27-24.57 14.88-.87.77-1.7 1.52-2.53 2.22-11.18 9.95-21.33 21.03-19.83 34.79zm20.5-34.01L302 580c7.22-6.5 16.16-14.6 23.9-14.6a10.07 10.07 0 011.9.18c9.8 1.83 15.13 22.09 13.32 33.85a38.8 38.8 0 01-3.02 8.73 97.92 97.92 0 00-1.89 4.63l-.75 2.06c-5.02 13.5-11.22 30.33-29.49 30.33a34.9 34.9 0 01-5.28-.46c-9.3-3.98-16.31-13.64-20.77-28.63-1.4-13.21 8.57-24.06 19.56-33.82zM590.36 673.6c-6.53-7.35-11.55-14.82-16.83-22.71-2.95-4.38-6-8.93-9.37-13.52-8.23-11.14-25.75-22.95-42.25-22.95a32.03 32.03 0 00-5.54.45 15.96 15.96 0 00-11.07 7.55c-2.49 4.29-2.83 9.65-.9 15.03 5.05 14.46 10.68 28.61 16.12 42.32 3.25 8.19 6.6 16.66 9.78 24.99A192.97 192.97 0 00545.4 736c3.05 5.1 5.85 10.46 8.53 15.6 2.45 4.71 4.98 9.6 7.7 14.24 4 6.86 9.51 13.46 14.84 19.84 2.8 3.4 5.66 6.9 8.34 10.4 4.04 5.27 7.6 10.6 11.07 15.74l1.57 2.31v-1.83l-.7-1.03c-3.52-5.17-7.1-10.5-11.1-15.82-2.68-3.49-5.63-7-8.42-10.4-5.29-6.35-10.76-12.95-14.73-19.72a297.6 297.6 0 01-7.66-14.2 348.81 348.81 0 00-8.53-15.66 182.72 182.72 0 01-15.07-31.1c-3.17-8.3-6.49-16.79-9.78-25-5.4-13.68-11.02-27.82-16.12-42.28-1.85-5.1-1.5-10.13.83-14.17a14.94 14.94 0 0110.38-7.08 31.5 31.5 0 015.37-.44c16.12 0 33.37 11.61 41.41 22.56 3.36 4.57 6.38 9.1 9.37 13.48 5.32 7.92 10.34 15.42 16.91 22.8 2.65 2.98 5.25 5.71 7.84 8.28v-1.41c-2.35-2.35-4.7-4.84-7.09-7.53zM153.62 636.33a24.12 24.12 0 00-14.12-4.2c-11.4 0-23.97 6.32-31.33 15.76-5.3 6.8-7.18 14.51-5.33 21.76 2.95 7.36 8.76 11.23 16.84 11.23 17 0 37.87-16.23 41.08-28.37 1.96-7.38-3.6-13.66-7.14-16.18zm6.16 15.94c-3.06 11.55-23.79 27.6-40.1 27.6-7.66 0-13.14-3.67-15.85-10.52-2.27-8.82 1.54-16.22 5.17-20.84 7.1-9.2 19.36-15.39 30.5-15.39a23.06 23.06 0 0113.56 4.02c3.13 2.24 8.53 8.23 6.72 15.13z" fill="#cfd4dd"/><path d="M572.73 665.04c-10.27-12.15-24.73-27.4-35.38-30.99-7.02-2.34-12.94-1.36-16.15 2.66-2.76 3.5-3.37 8.95-1.7 15.86 3.25 7.83 5.55 16.13 8 24.91 4.38 15.72 8.91 32 19.4 46.57a88.75 88.75 0 008.39 9.8 90.94 90.94 0 019.06 10.7c4 5.84 7.1 12.35 10.3 19.24 3.14 6.6 6.35 13.42 10.46 19.63 2.42 3.63 4.76 7.25 7.03 10.76 1.77 2.77 3.53 5.5 5.3 8.2v-1.85c-1.49-2.27-2.97-4.56-4.47-6.87-2.27-3.53-4.6-7.18-7.02-10.8-4.08-6.14-7.3-12.94-10.39-19.5-3.25-6.93-6.3-13.48-10.38-19.41a100.28 100.28 0 00-9.14-10.82 96.97 96.97 0 01-8.34-9.66c-10.39-14.44-14.88-30.63-19.25-46.28-2.42-8.8-4.76-17.14-8.01-24.95-1.55-6.52-.98-11.67 1.59-14.92 1.8-2.31 4.68-3.54 8.23-3.54a21.26 21.26 0 016.8 1.23c10.45 3.49 24.73 18.62 34.92 30.68a263.8 263.8 0 0025.47 26.14v-1.35a262.27 262.27 0 01-24.72-25.44z" fill="#cfd4dd"/><path d="M551.02 661.38a21.98 21.98 0 00-7.17-1.7c-2.68 0-4.53 1.13-5.47 3.38a2.1 2.1 0 00-.99 1.98c0 .76-.07 1.1-.49 1.26l-.3.17.38 3.74c1.55 15.86 2.87 29.52 12.91 42.79 4 5.3 9.44 9.3 14.61 13.2 5.97 4.4 11.56 8.55 14.91 14.27 3.55 5.94 4.99 12.5 6.39 18.84a72.63 72.63 0 003.28 11.9 121.54 121.54 0 008.37 15.96v-1.93a112.13 112.13 0 01-7.43-14.4 77.78 77.78 0 01-3.28-11.76c-1.4-6.42-2.87-13.07-6.42-19.1-3.51-5.91-9.17-10.14-15.21-14.58-5.14-3.85-10.5-7.8-14.42-13-9.86-13.04-11.18-26.6-12.7-42.27l-.3-3.1a2.3 2.3 0 00.76-1.91c.04-.76.08-1.06.46-1.21l.22-.07.08-.21a4.49 4.49 0 014.64-2.95 19.94 19.94 0 016.8 1.67c13.7 5.13 34.59 28.04 41.42 35.57 1.74 1.9 3.55 3.8 5.38 5.7v-1.49c-1.56-1.62-3.1-3.25-4.59-4.89-18.8-20.6-32.48-32.33-41.84-35.86zM143.43 794.64a37.76 37.76 0 009.17.87c16.28 0 42.9-5 48.25-9.07 4.61-3.47 8.53-8.22 6.38-19.59-1.47-7.85-8.9-17.57-14.91-24.33-12.87-14.51-23.25-22.85-30.8-24.8a21.66 21.66 0 00-5.33-.68 17.02 17.02 0 00-9.4 2.53c-15.4 10.46-22.43 33.49-17.79 58.74 2.42 7.21 5.29 13.88 14.43 16.33zm3.92-74.23a15.88 15.88 0 018.84-2.37 20.3 20.3 0 015.06.66c7.4 1.9 17.6 10.14 30.32 24.48 8.45 9.58 13.55 17.82 14.68 23.88 2.04 10.8-1.7 15.31-6 18.58-5.24 3.98-31.52 8.85-47.64 8.85a37.05 37.05 0 01-8.91-.81c-8.65-2.33-11.4-8.74-13.7-15.61-3.48-18.84-1-45.25 17.35-57.67zM308.11 730.76c2.53-3.37 3.51-7.4 2.5-10.71l-.12-.17a14.13 14.13 0 00-1.36-1.46 15.12 15.12 0 01-1.43-1.5l-.08-.14-.19-.04a12.1 12.1 0 00-12 4.21 14 14 0 00-3.4 10.99l.04.22.18.16a1.97 1.97 0 01.72 1.1 3.27 3.27 0 001.28 1.78 8.7 8.7 0 004.2 1.08c3.47 0 7.1-2.08 9.66-5.51zm-9.66 4.52a7.82 7.82 0 01-3.7-.95 2.1 2.1 0 01-.84-1.26 3.32 3.32 0 00-.94-1.5 13.11 13.11 0 013.21-9.96 11.1 11.1 0 0110.87-3.93 12.37 12.37 0 001.4 1.46c.38.43.84.85 1.25 1.3a11.57 11.57 0 01-2.38 9.72c-2.34 3.15-5.78 5.12-8.87 5.12zM339 754.77c-6.34 12.52 1.17 22.77 9.59 27.71a136.19 136.19 0 0015.22 7.14c4.83 2.05 9.73 4.15 14.64 6.6 4.72 2.36 8.8 4.84 12.73 7.25 8.8 5.36 17.14 10.44 30.5 12.55l.04.02h.03c8.99-.11 16.16-7 20.62-12.76 10.27-13.38 16.2-33.99 13.13-45.96-1.92-7.6-7.05-13.08-11.02-16.32-16-13.08-40.43-19.7-58.07-21.54-20.12.15-40.01 15.02-47.41 35.31zm115.56 2.8c2.95 11.7-2.9 31.93-12.98 45.1-4.3 5.58-11.22 12.24-19.79 12.35-13.14-2.07-21.37-7.11-30.09-12.42-3.96-2.41-8.04-4.9-12.83-7.28-4.87-2.47-9.86-4.57-14.65-6.61a139.63 139.63 0 01-15.1-7.1c-8-4.74-15.25-14.5-9.14-26.44 7.21-19.97 26.77-34.56 46.4-34.71 17.37 1.8 41.6 8.38 57.46 21.33 3.85 3.13 8.87 8.44 10.72 15.78z" fill="#cfd4dd"/><path d="M164.42 784.92c8.8 0 20.28-2.51 26.28-9.53a14.71 14.71 0 003.43-12.54c-1.96-12.6-20-29.33-31.67-29.33l-.5.02c-5.96.24-11.32 3.46-15.44 9.29-5.96 8.41-8.26 21.23-5.43 30.39 1.58 8.07 12.87 11.7 23.33 11.7zm-17.1-41.53c2.75-3.86 7.55-8.57 14.72-8.85h.42c11.29 0 28.76 16.23 30.73 28.46a14.11 14.11 0 01-3.25 11.74c-4.8 5.65-14.57 9.18-25.52 9.18-10.04 0-20.88-3.36-22.35-10.95-2.76-8.93-.57-21.37 5.25-29.58z" fill="#cfd4dd"/><path d="M160.38 765.48a16.7 16.7 0 011.93 1.8l.1.14.16.04a18.93 18.93 0 003.96.41c4.53 0 7.55-1.87 8.5-5.3a7.74 7.74 0 00-1.62-6.08 8.23 8.23 0 00-6.08-2.43c-3.4 0-6.42 1.55-7.74 3.93-.87 1.47-1.4 3.94.68 7.34zm.07-7c1.14-2.04 3.9-3.4 6.87-3.4a7.02 7.02 0 015.33 2.11 6.55 6.55 0 011.4 5.2c-1.02 3.71-4.65 4.49-7.52 4.49a16.83 16.83 0 01-3.58-.38 16.28 16.28 0 00-1.9-1.76c-1.39-2.34-1.58-4.5-.6-6.27zM89.06 758.98c-6.83-1.94-13.93 1.6-20.23 10.12l-.08.19a28.01 28.01 0 00-.15 7.91l.04.13.08.11c4.6 6.25 12.98 10.8 19.85 10.8 5.06 0 8.8-2.36 10.76-6.85 1.78-4.02 1.51-9.34-.64-13.9a15.37 15.37 0 00-9.63-8.5zM98.4 781c-2.23 5.17-6.57 6.25-9.82 6.25-6.42 0-14.57-4.4-18.95-10.29a25.36 25.36 0 01.11-7.36c3.44-4.64 8.95-10.13 15.56-10.13a13.26 13.26 0 013.5.49 14.23 14.23 0 018.95 7.94c2.08 4.31 2.3 9.35.65 13.1zM230.07 858.72a76.03 76.03 0 00-8.53-7.38c-4.38-3.51-9.36-7.48-13.06-12.1-2.3-2.95-4.27-6.04-6.2-9.02-5.62-8.82-10.9-17.12-24.27-19.1a41.34 41.34 0 00-6.12-.46c-21.9 0-41.75 17.6-56.21 30.47-17.7 15.67-25.3 37.4-21.94 62.9 1.74 7.58 2.12 15.9 2.5 23.98.75 17.35 1.58 35.28 15.81 45.62 8.16 5.93 20.88 9.17 35.95 9.17 30.92 0 63.28-12.68 78.56-30.82 11.03-13.06 17.78-30.57 19-49.38v-.1c-.23-1.61-.5-3.22-.73-4.82-2.03-14.12-4-27.47-14.76-38.96zm-4.26 92.6c-15.14 17.95-47.16 30.48-77.82 30.48-14.8 0-27.37-3.19-35.33-8.98-13.86-10.04-14.61-26.97-15.44-44.85-.38-8.12-.72-16.52-2.46-24.1-3.32-25.13 4.12-46.55 21.56-61.99 14.39-12.76 34.06-30.2 55.58-30.2a39.27 39.27 0 015.96.43c12.91 1.93 17.86 9.67 23.6 18.63a106.65 106.65 0 006.27 9.14c3.73 4.68 8.8 8.68 13.21 12.23a79.45 79.45 0 018.39 7.29c10.53 11.27 12.5 24.48 14.5 38.45.26 1.58.48 3.15.71 4.73-1.25 18.58-7.9 35.85-18.73 48.74z" fill="#cfd4dd"/><path d="M214.44 860.08c-4.3-3.42-8.76-6.95-12.53-11.38a65.88 65.88 0 01-5.74-8.53c-5.5-9.12-11.78-19.44-25.9-19.44a32.9 32.9 0 00-5.1.43c-8.75 1.34-16.72 8.13-25.97 15.97-.98.8-1.93 1.62-2.9 2.43-3.4 2.87-6.88 5.35-10.24 7.74-6.3 4.5-12.8 9.16-19 16.44-6.3 10.27-8.67 22.76-7.2 38.34 2.34 8.04 2.83 16.59 3.32 24.83.9 15.73 1.78 30.58 14.91 40.7 9.1 6.99 24.62 9.46 35.12 9.46.6 0 1.2 0 1.8-.02 16.88-.43 42.7-7.63 57.4-20.03 23.4-19.74 35.22-58.28 15.59-84.2-3.82-5.06-8.76-8.97-13.56-12.74zm-2.68 96.17c-12.72 10.77-37.15 19.28-56.78 19.8-.56.02-1.17.02-1.77.02-10.39 0-25.6-2.42-34.51-9.27-12.76-9.83-13.6-24.46-14.54-39.92-.49-8.33-.94-16.93-3.36-25.01-1.35-15.23.98-27.52 7.06-37.56 6.08-7.1 12.54-11.7 18.8-16.18 3.36-2.41 6.83-4.9 10.27-7.8.98-.8 1.93-1.64 2.9-2.43 9.14-7.76 17.03-14.44 25.53-15.76a32.04 32.04 0 014.9-.42c13.56 0 19.68 10.08 25.04 18.95a69.34 69.34 0 005.85 8.67c3.81 4.5 8.35 8.08 12.72 11.53 4.91 3.9 9.6 7.59 13.37 12.55 19.26 25.46 7.59 63.39-15.48 82.83zM20.7 823.46c-4.05 0-8.2.13-12.55.28l-4.9.14-.38.01-.08.42C.42 839.18-.4 855.83.2 876.77l.04.15c1.47 4.98 2.98 11.3 4.6 18.04 3.89 16.36 8.3 34.92 15.4 46.98 2.99 5.06 10.24 12.66 18.09 12.97h.08l.04-.02c15.74-4.14 26.5-19.97 28.92-42.4a68.3 68.3 0 00.1-8.83c-.06-2.36-.14-4.8-.03-7.08.12-2.73.34-5.49.53-8.41 1.17-17.52 2.5-37.38-7.02-49.57-9.75-12.55-23.15-15.14-40.25-15.14zm46.2 64.65c-.15 2.92-.34 5.68-.45 8.42-.15 2.34-.04 4.79 0 7.17a67.04 67.04 0 01-.08 8.7c-2.34 21.93-12.83 37.43-28.09 41.5-7.4-.33-14.42-7.8-17.21-12.45-6.99-11.95-11.4-30.43-15.3-46.73a340.3 340.3 0 00-4.6-18.03c-.6-20.65.2-37.12 2.53-51.81 1.51-.04 3.02-.1 4.46-.13 4.34-.15 8.5-.29 12.53-.29 16.84 0 29.98 2.5 39.5 14.76 9.2 11.9 7.88 31.54 6.71 48.89z" fill="#cfd4dd"/><path d="M49.99 838.58a31.8 31.8 0 00-18.2-5.98 25.77 25.77 0 00-11.67 2.68c-15.3 7.68-14.2 30.67-11.9 51.6l.05.17c1.7 3.45 3.32 8.72 5.05 14.29 4.42 14.55 10 32.64 21.37 36.18a14.3 14.3 0 004.16.65c6.41 0 12.04-4.53 15.14-8.76 6.87-9.5 7.47-22.32 8.11-37.17.08-1.87.16-3.77.27-5.74.9-16.78 1.96-37.71-12.38-47.92zm11.4 47.88c-.08 1.95-.2 3.86-.27 5.73-.64 14.7-1.24 27.38-8 36.61-2.8 3.85-8.2 8.35-14.27 8.35a13.11 13.11 0 01-3.82-.6c-10.9-3.39-16.38-21.19-20.8-35.51-1.77-5.8-3.32-10.84-5.02-14.35-2.22-20.57-3.36-43.13 11.37-50.52a24.97 24.97 0 0111.21-2.57 30.73 30.73 0 0117.6 5.8c13.92 9.9 12.83 30.5 12 47.06zM206.82 867.87c-2.34-1.6-4.57-3.11-6.5-4.73-3.81-3.2-7.17-7.72-10.46-12.1-6.15-8.29-12.57-16.88-22.12-16.88a20.88 20.88 0 00-9.25 2.42c-3.59 1.77-7.25 5.17-11.14 8.74a99.71 99.71 0 01-10.42 8.76c-3.2 2.22-6.38 4.05-9.4 5.8-4.6 2.65-8.56 4.93-11.44 7.9-10.07 10.5-9.92 24.08-8.23 37.3 2.24 7.8 2.91 15.44 3.6 22.82 1.24 13.72 2.33 25.54 12.68 33.65 7.85 6.16 17.74 9.14 30.24 9.14a96.27 96.27 0 0011.51-.74c14.09-1.7 34.7-8.47 46.55-21.99 17.22-19.63 24.66-51.58 4.54-72.16a62.77 62.77 0 00-10.16-7.93zm4.87 79.43c-11.67 13.29-32.02 19.97-45.91 21.65a98.46 98.46 0 01-11.4.74c-12.27 0-21.98-2.93-29.6-8.91-10.04-7.85-11.1-19.5-12.3-32.98-.69-7.43-1.37-15.13-3.63-22.93-1.63-12.87-1.81-26.2 8-36.4 2.76-2.86 6.68-5.1 11.22-7.7 3.01-1.79 6.22-3.6 9.44-5.85a100.31 100.31 0 0010.53-8.85c3.8-3.55 7.47-6.89 10.95-8.58a19.47 19.47 0 018.76-2.33c9.02 0 14.98 8.03 21.33 16.5 3.32 4.4 6.72 8.99 10.6 12.25a76.22 76.22 0 006.58 4.8 60.5 60.5 0 0110 7.8c19.66 20.15 12.34 51.52-4.57 70.79z" fill="#cfd4dd"/><path d="M32.96 843.11a16.17 16.17 0 00-10.38 3.58c-9.14 7.35-8.8 19.45-8.42 31.17l.11 3.94.04.16c.64 2.07 1.32 4.2 2 6.49 3.5 11.68 7.5 24.9 17.82 32.07a8.23 8.23 0 004.53 1.15 13.96 13.96 0 009.25-3.38c8.83-8.63 13.32-48.06 5.02-63.52-3.51-6.64-12.12-11.66-19.97-11.66zm14.23 74.46c-1.81 1.81-5.36 3.1-8.53 3.1a7.07 7.07 0 01-3.96-1c-10.05-6.95-13.98-20-17.4-31.52-.68-2.25-1.33-4.38-2-6.44-.04-1.3-.08-2.58-.15-3.88-.3-11.46-.69-23.31 8.04-30.35a15.12 15.12 0 019.77-3.35c7.52 0 15.71 4.78 19.11 11.14 8.11 15.17 3.8 53.85-4.88 62.3z" fill="#cfd4dd"/><path d="M35.3 857.34l-.11-.03-.12.03c-10.19 1.72-12.23 13.29-10.68 23.6 1.7 5.85 4.26 12.47 10.16 17.23l.1.08.12.02a18.84 18.84 0 003.25.37 7.53 7.53 0 002.68-.43l.15-.04.08-.1c5.96-6.45 8.53-18.45 5.96-27.95-1.81-6.57-5.93-11.1-11.59-12.78zm4.95 39.96a6.41 6.41 0 01-2.23.32 18.3 18.3 0 01-2.95-.32c-5.58-4.57-8.04-10.97-9.74-16.6-1.4-9.7.46-20.68 9.78-22.36 6.76 2.04 9.63 7.68 10.76 12.04 2.53 9.14.08 20.7-5.63 26.92zM200.93 881.84a12.42 12.42 0 00-2.68-1.24 15.27 15.27 0 01-2.6-1.1c-2.57-1.43-5.33-3.28-8.31-5.27-5.93-4.02-12.08-8.15-17.78-9.6a22.08 22.08 0 00-5.25-.68c-4.53 0-8.08 1.57-11.21 2.96-1.06.45-2 .87-2.99 1.23-1.73.68-3.55 1.3-5.32 1.9-11.93 4.12-23.22 8.03-25 25.52l-.03.15.07.15c.99 1.67.99 3.61.95 5.67a21.63 21.63 0 00.19 3.49v.1c2.52 6.53 2.6 13.53 2.64 20.33.07 9.06.11 17.63 5.66 25.02 5.55 7.48 15.86 11.61 28.92 11.63 19.22 0 38.81-8.7 48.74-21.65 14.72-24.3 12.46-46.19-6-58.6zm5.2 58.02c-9.77 12.7-29.06 21.22-47.94 21.22-12.76 0-22.77-4-28.13-11.21-5.32-7.14-5.36-15.54-5.47-24.44-.04-6.84-.12-13.94-2.68-20.62a18.9 18.9 0 01-.12-3.28c0-2.04 0-4.17-.98-6 1.74-16.72 12.23-20.33 24.32-24.54 1.73-.6 3.55-1.23 5.36-1.9.98-.36 1.96-.82 2.98-1.25 3.2-1.42 6.5-2.89 10.84-2.89a20.69 20.69 0 015.02.66c5.51 1.4 11.59 5.5 17.44 9.44 2.98 2 5.78 3.89 8.38 5.3a18.02 18.02 0 002.72 1.2 11.5 11.5 0 012.5 1.12c17.96 12.08 20.15 33.49 5.77 57.2zM382.86 918.23c1.06-17.04-4.22-34.46-12.9-42.43-7.93-6.92-16.16-10.3-25.15-10.3-11.52 0-22.54 5.68-31.9 11.02l-2.68 1.5c-5.85 3.3-11.93 6.7-15.97 9.9-21 16.6-23.94 47.53-24.39 69.35.04 10.19 10 15.8 28.16 15.8 12.46 0 25.79-2.74 32.55-5.44a32.3 32.3 0 003.4-1.81 32.44 32.44 0 013.02-1.63c4.15-1.86 8.6-3.66 12.87-5.38 7.4-2.96 14.43-5.77 18.05-8.34 8.75-6.23 14.04-17.69 14.94-32.24zm-15.55 31.4c-3.5 2.5-10.46 5.3-17.82 8.26-4.3 1.72-8.76 3.5-12.91 5.38a34.7 34.7 0 00-3.13 1.68 24.75 24.75 0 01-3.3 1.73c-6.63 2.69-19.77 5.38-32.12 5.38-10.11 0-27.1-1.92-27.14-14.8.37-21.59 3.36-52.18 24-68.53 4-3.17 9.98-6.55 15.79-9.84l2.68-1.5c9.33-5.27 20.16-10.9 31.45-10.9 8.72 0 16.72 3.3 24.46 10.08 8.42 7.72 13.63 24.84 12.61 41.59-.86 14.25-6.04 25.42-14.57 31.48z" fill="#cfd4dd"/><path d="M360.36 884.37c-4.34-3.9-11.51-6.34-18.8-6.34a31 31 0 00-5.32.47c-9.55 1.7-23.97 9.23-33.45 15.14-17.4 10.89-27.64 33.76-24.84 55.7 2.64 10.21 11.47 16.08 24.16 16.08a46.13 46.13 0 006.68-.51c11.18-1.6 29.9-11.5 43.53-22.99 10.2-8.62 16.95-22.44 17.14-35.22.16-9.1-3.02-16.84-9.1-22.33zm-8.68 56.8c-13.52 11.4-31.98 21.16-43 22.74a47.4 47.4 0 01-6.57.51c-12.16 0-20.61-5.59-23.18-15.27-2.72-21.48 7.32-43.98 24.39-54.68 10.12-6.32 24.27-13.42 33.07-14.97a29.27 29.27 0 015.18-.45c7.06 0 14 2.32 18.12 6.06 5.89 5.3 8.95 12.78 8.76 21.57-.2 12.5-6.8 26.03-16.77 34.49zM496.32 890.07a9.9 9.9 0 008.87 5.29 8.96 8.96 0 007.7-4.21l.08-.16c.3-1.8.64-4.1-.08-5.94l-.07-.11a8.63 8.63 0 00-7.4-3.61 9.91 9.91 0 00-7.37 3.04 6.86 6.86 0 00-1.77 5.53zm2.45-5.02a8.94 8.94 0 016.65-2.72 7.64 7.64 0 016.53 3.12 9.9 9.9 0 010 5.24 7.87 7.87 0 01-6.76 3.67 8.76 8.76 0 01-7.9-4.65 6.04 6.04 0 011.48-4.66z" fill="#cfd4dd"/><path d="M341.6 894.81a30.05 30.05 0 00-6.83-.74c-14.39 0-31.94 9.06-41.72 21.54-4.72 6.04-9.82 15.57-7.03 26.69 2.69 8.72 8.7 13.3 17.34 13.3 10.95 0 25.3-7.47 36.54-19.02 8.65-8.89 13.52-18.38 13.3-26.09-1.18-8.88-5.07-14.15-11.6-15.68zm-2.42 41.07c-10.95 11.2-25.33 18.72-35.82 18.72-8.16 0-13.82-4.34-16.39-12.55-2.64-10.7 2.3-19.95 6.91-25.82 9.55-12.27 26.77-21.16 40.89-21.16a29.76 29.76 0 016.64.72c6.04 1.42 9.7 6.4 10.8 14.78.19 7.38-4.53 16.6-13.03 25.31zM177.45 899.88c-8.38 0-16.96 2.67-23.03 7.16-11.56 8.5-13.63 22.16-13.33 32.12l.04.21a31.06 31.06 0 007.1 9.08l.15.08a32.24 32.24 0 0014.64 3.26c12.54 0 25.64-6.22 32.59-15.51a25.26 25.26 0 004.3-23.01c-2.46-8.38-10.87-13.38-22.46-13.38zm17.32 35.8c-6.72 9.04-19.48 15.11-31.75 15.11a31.58 31.58 0 01-14.16-3.13 30.69 30.69 0 01-6.8-8.65c-.22-9.7 1.82-22.97 12.96-31.16 5.88-4.36 14.3-6.96 22.42-6.96 11.14 0 19.14 4.72 21.52 12.66a24.33 24.33 0 01-4.19 22.12z" fill="#cfd4dd"/><path d="M322.69 919.06l-.16-.07a12.15 12.15 0 00-6.19-1.66 16.35 16.35 0 00-12.27 6.05 12.73 12.73 0 00-2.98 10.84l.04.11.07.1a13.21 13.21 0 01.87 1.34 9.75 9.75 0 002.15 2.64l.2.1a11.99 11.99 0 003.5.5c5.36 0 11.03-3.33 14.01-8.3 2.38-3.86 2.64-7.94.83-11.5zm-1.59 11.12c-2.8 4.6-8.2 7.82-13.18 7.82a10.84 10.84 0 01-3.13-.44 9.03 9.03 0 01-1.85-2.3 7.44 7.44 0 00-.9-1.36 12.1 12.1 0 012.8-9.9 15.48 15.48 0 0111.51-5.67 10.7 10.7 0 015.55 1.47c1.62 3.19 1.31 6.87-.8 10.38zM336.8 983.5l-.07-.1-.15-.01a198.88 198.88 0 00-30.02-2.3c-13.66 0-31.33 1.54-37.98 8.96-3.24 3.63-4.79 9.42-6.26 16.25h1.05c1.36-6.6 2.87-12.15 5.97-15.59 4.98-5.56 18.2-8.62 37.22-8.62a195.33 195.33 0 0129.72 2.28c5.28 4.74 3.5 13.46 1.7 21.93H339c1.84-8.75 3.62-17.74-2.2-22.8zM583 1006.3h1.81c4.17-2.62 8.44-5.23 12.63-7.7v-1.17a442.68 442.68 0 00-14.44 8.87zM386.34 1000.2h-.08a40.95 40.95 0 00-16.46 6.1h1.93a40.47 40.47 0 0114.53-5.07 36.32 36.32 0 0110 5.08h1.66a38.64 38.64 0 00-11.47-6.08zM203.69 1006.3h24.27a29.5 29.5 0 00-10.99-1.85 53.12 53.12 0 00-13.28 1.85z" fill="#cfd4dd"/></svg>